<svg width="45" height="44" viewBox="0 0 45 44" fill="none"
  xmlns="http://www.w3.org/2000/svg">
  <path d="M6.75106 28.6774C7.9741 27.2034 9.12558 25.8062 10.2867 24.4176C12.2809 22.0335 15.6595 22.0346 17.6591 24.4176C18.1643 25.019 18.66 25.6289 19.1908 26.273C19.3436 26.101 19.4824 25.9462 19.6192 25.7902C21.0409 24.1655 22.4594 22.5377 23.8843 20.9151C25.963 18.5481 29.2828 18.5492 31.3646 20.9215C33.5009 23.3559 35.6287 25.7977 37.7597 28.2352C37.8996 28.3954 38.0417 28.5535 38.2767 28.8184C38.2767 28.5631 38.2767 28.4179 38.2767 28.2726C38.2767 25.1397 38.2745 22.0079 38.281 18.875C38.281 18.6378 38.298 18.3889 38.3717 18.1668C38.5512 17.622 39.1547 17.2535 39.6845 17.3272C40.3137 17.4148 40.789 17.9104 40.8168 18.5353C40.8349 18.9348 40.8232 19.3353 40.8232 19.7348C40.8232 23.8803 40.8264 28.0259 40.8232 32.1714C40.8189 36.1524 38.1592 39.4114 34.2551 40.1975C33.737 40.3022 33.1976 40.3396 32.6667 40.3407C25.8828 40.3503 19.1 40.361 12.3162 40.3407C8.32553 40.3289 5.10717 37.6767 4.321 33.7896C4.21632 33.2716 4.1768 32.7322 4.17573 32.2024C4.16612 25.4313 4.16291 18.6603 4.17146 11.8881C4.17573 8.23075 6.38148 5.12562 9.77181 4.07776C10.574 3.82994 11.4424 3.69642 12.282 3.68895C16.7853 3.65263 21.2908 3.67079 25.7953 3.67292C26.4874 3.67292 26.9734 4.01046 27.139 4.58406C27.3014 5.14591 27.0899 5.75904 26.5665 6.02501C26.2952 6.1628 25.9565 6.22262 25.6489 6.22369C21.2246 6.23544 16.7992 6.22689 12.3749 6.23437C9.79104 6.23864 7.65472 7.80029 6.95935 10.2154C6.81088 10.7324 6.73931 11.29 6.73718 11.8294C6.72115 17.308 6.72756 22.7865 6.72756 28.2651C6.72756 28.3687 6.73931 28.4702 6.75106 28.6774ZM22.4508 37.7867C25.8358 37.7867 29.2219 37.7942 32.6069 37.7846C35.4888 37.776 37.7907 35.7273 38.1325 32.8742C38.1496 32.7279 38.0855 32.5292 37.9883 32.4171C35.085 29.0962 32.1786 25.7763 29.2497 22.4778C28.9805 22.1745 28.5885 21.9149 28.2029 21.79C27.2629 21.4855 26.45 21.7729 25.7995 22.5184C23.9516 24.6377 22.1016 26.7558 20.2515 28.874C19.4739 29.7638 18.6931 29.7606 17.9486 28.8654C17.1987 27.9639 16.4489 27.0613 15.7022 26.1577C14.6789 24.9197 13.1226 24.9239 12.1036 26.1662C10.464 28.1647 8.83611 30.1739 7.16978 32.1511C6.81942 32.5666 6.74465 32.9405 6.86429 33.4478C7.47314 36.021 9.65432 37.7739 12.3354 37.7835C15.7076 37.7952 19.0797 37.7867 22.4508 37.7867Z" fill="currentColor"/>
  <path d="M33.1591 8.79154C33.1591 7.57063 33.158 6.41275 33.1601 5.25487C33.1601 5.08183 33.1601 4.90665 33.19 4.73788C33.3107 4.05212 33.8672 3.62913 34.5648 3.6804C35.196 3.7274 35.6991 4.23905 35.7098 4.90024C35.728 6.03249 35.7173 7.1658 35.7184 8.29805C35.7184 8.44225 35.7184 8.58645 35.7184 8.77018C35.8946 8.77872 36.0356 8.79047 36.1766 8.79047C37.2693 8.79261 38.361 8.78727 39.4537 8.79261C40.2837 8.79688 40.8348 9.31387 40.8338 10.068C40.8316 10.8157 40.2719 11.3423 39.4484 11.3487C38.3695 11.3573 37.2907 11.3508 36.2108 11.3508C36.0655 11.3508 35.9203 11.3508 35.7184 11.3508C35.7184 11.525 35.7184 11.667 35.7184 11.8091C35.7184 12.9018 35.7237 13.9945 35.7162 15.0873C35.7109 15.9001 35.164 16.4791 34.4302 16.4673C33.7166 16.4566 33.1687 15.8798 33.1623 15.0969C33.1516 13.8717 33.1591 12.6465 33.1591 11.3711C33.002 11.3637 32.8621 11.3519 32.7222 11.3519C31.6166 11.3498 30.5111 11.3626 29.4056 11.3466C28.472 11.3338 27.8674 10.5636 28.0992 9.7155C28.2519 9.15792 28.7219 8.80009 29.35 8.79368C30.4556 8.78406 31.5611 8.79047 32.6666 8.79047C32.8108 8.79047 32.955 8.79154 33.1591 8.79154Z" fill="currentColor"/>
  <path d="M9.28893 13.4978C9.2665 10.9193 11.3537 8.80329 13.9311 8.79154C16.5268 8.77979 18.6407 10.8456 18.6609 13.4156C18.6823 16.023 16.6005 18.1507 14.0123 18.1668C11.406 18.1828 9.31136 16.1116 9.28893 13.4978ZM11.8514 13.4498C11.8397 14.6418 12.7733 15.5989 13.9546 15.6075C15.1157 15.6149 16.0813 14.6792 16.1027 13.5245C16.1241 12.3389 15.1862 11.3647 14.0102 11.3541C12.8074 11.3423 11.8632 12.2599 11.8514 13.4498Z" fill="currentColor"/>
</svg>
