<svg width="24" height="24" viewBox="0 0 24 24" fill="none"
  xmlns="http://www.w3.org/2000/svg">
  <path d="M19.6407 16.1026C19.5445 16.0343 19.5197 15.985 19.5197 15.8611C19.524 13.4375 19.525 10.7865 19.5226 7.51866C19.5216 6.56114 18.935 5.85789 17.9907 5.68219C17.9458 5.6739 17.8769 5.62558 17.8408 5.57629C16.1884 3.3372 13.5325 2 10.7361 2C9.66387 2 8.61216 2.19326 7.61023 2.5749C3.64986 4.08194 1.35758 8.23606 2.15893 12.4526C2.53764 14.4458 3.62497 16.2564 5.22083 17.5516C6.78936 18.8244 8.74686 19.5257 10.7327 19.5257C11.4657 19.5257 12.1982 19.43 12.9098 19.2421C13.3334 19.1304 13.7477 18.9781 14.1489 18.8312C14.2626 18.7897 14.3787 18.7468 14.4949 18.7053C14.4949 18.7131 14.4959 18.7209 14.4959 18.7287C14.5056 18.92 14.5154 19.1177 14.55 19.3168C14.7916 20.7087 16.0009 21.8555 17.363 21.9839C17.4753 21.9946 17.5895 22 17.7013 22C19.1048 22 20.32 21.1723 20.7978 19.8912C21.0521 19.2085 21.076 18.4847 20.8671 17.7976C20.6573 17.1085 20.2336 16.5219 19.6407 16.1026ZM17.9048 21.1513C17.8633 21.1533 17.8223 21.1542 17.7818 21.1542C16.7252 21.1542 15.7984 20.4837 15.4758 19.4862C15.1323 18.4247 15.5442 17.2944 16.4773 16.7371C16.7413 16.5794 16.8487 16.3837 16.8482 16.0612C16.8413 13.1847 16.8433 10.299 16.8462 7.60894C16.8462 7.47473 16.8521 7.30148 16.895 7.15263C17.0048 6.77246 17.344 6.52698 17.7588 6.52698C17.8057 6.52698 17.853 6.5299 17.9004 6.53625C18.3352 6.59384 18.6539 6.97548 18.6573 7.44301C18.6627 8.10332 18.6617 8.77582 18.6607 9.42539C18.6607 9.70064 18.6597 9.97638 18.6597 10.2516V11.8226C18.6597 12.1769 18.6597 12.5307 18.6602 12.885C18.6612 13.9363 18.6622 15.0231 18.6549 16.0919C18.6529 16.3793 18.7573 16.5653 19.0033 16.7141C19.8969 17.2539 20.3288 18.3012 20.0784 19.3202C19.8291 20.3344 18.9155 21.1045 17.9048 21.1513ZM9.60237 2.94239C9.65411 2.94239 9.70047 2.95068 9.73073 2.96581C10.0455 3.1215 10.2773 3.25082 10.4823 3.38503C10.4842 3.3865 10.4862 3.38747 10.4882 3.38894C10.4862 3.38991 10.4842 3.39089 10.4823 3.39186C9.93863 3.6515 9.4833 3.77204 9.04992 3.77204C8.95427 3.77204 8.85715 3.76618 8.76247 3.75398C8.69415 3.74569 8.6268 3.74129 8.5614 3.7369C8.52334 3.73446 8.48576 3.73202 8.44769 3.72909C8.40035 3.72519 8.35399 3.72275 8.30909 3.72275C7.83668 3.72275 7.49115 3.95456 7.3096 4.39379C7.27007 4.48993 7.20419 4.54508 7.049 4.61292C6.79083 4.72517 6.57024 4.86133 6.39406 5.01701C6.21251 5.17757 6.04268 5.35277 5.87821 5.52212C5.75864 5.6451 5.63517 5.77297 5.51023 5.89156C5.28232 6.10727 5.02855 6.21708 4.75623 6.21708C4.62495 6.21708 4.4883 6.1917 4.34726 6.14192C4.95046 5.29958 5.67031 4.62024 6.54193 4.06876C7.47505 3.47825 8.48186 3.101 9.53454 2.94727C9.55699 2.94385 9.57944 2.94239 9.60237 2.94239ZM2.89488 9.95735C2.99297 8.87929 3.31605 7.85588 3.85581 6.91398C3.92267 6.92765 3.98953 6.9418 4.05444 6.95596C4.29016 7.00671 4.51319 7.05454 4.74695 7.07308C4.79039 7.0765 4.83431 7.07845 4.87726 7.07845C5.29696 7.07845 5.69959 6.91008 6.0417 6.5914C6.19641 6.44743 6.34623 6.29614 6.49166 6.14973C6.65271 5.9877 6.81913 5.81982 6.98897 5.66462C7.09731 5.56555 7.24323 5.47869 7.39891 5.42012C7.64391 5.32837 7.94112 5.17855 8.06361 4.83351C8.13584 4.63 8.24955 4.58803 8.39791 4.58803C8.43744 4.58803 8.48186 4.59144 8.53017 4.59877C8.71806 4.6261 8.90547 4.63976 9.08848 4.63976C9.53893 4.63976 9.97865 4.55582 10.3959 4.39086C10.5906 4.31376 10.8151 4.22054 11.0191 4.0878C11.3227 3.89014 11.4081 3.6637 11.4261 3.5085C11.4501 3.30255 11.3749 3.09124 11.2075 2.89261C11.4608 2.91799 11.7204 2.94385 11.9757 2.97167C12.0191 2.97655 12.0645 2.98582 12.1128 2.99607C12.166 3.0073 12.2207 3.01852 12.2792 3.02535C12.573 3.05805 12.7145 3.11222 12.7751 3.3455C12.8039 3.45628 12.8815 3.53095 12.9498 3.59733C12.9839 3.63051 13.0196 3.66516 13.0362 3.69347C13.0591 3.733 13.0752 3.78375 13.0898 3.83841C13.0645 3.84671 13.0406 3.85257 13.0235 3.85257C12.9151 3.83256 12.8073 3.82231 12.7033 3.82231C12.2421 3.82231 11.8361 4.0141 11.4969 4.39282C11.2236 4.69735 11.0011 5.01945 10.8347 5.34985C10.5208 5.97355 10.6858 6.57188 11.2758 6.9501C11.5467 7.12384 11.8449 7.25121 12.1333 7.3742C12.1987 7.40202 12.2646 7.43032 12.3295 7.45863C12.4813 7.525 12.6365 7.58405 12.7868 7.64164C12.9537 7.70508 13.126 7.77097 13.289 7.84515C13.2948 7.84759 13.3002 7.85052 13.3051 7.85296C13.2997 7.85686 13.2938 7.86076 13.288 7.86516C12.8878 8.13699 12.4154 8.32195 11.8834 8.41517C11.8805 8.41566 11.8751 8.41614 11.8673 8.41614C11.8268 8.41614 11.7707 8.39858 11.7297 8.37369C11.5843 8.28486 11.3964 8.16481 11.23 8.02035C11.0035 7.82367 10.7512 7.72412 10.4794 7.72412C10.3671 7.72412 10.2495 7.7412 10.1299 7.77487C9.37007 7.98814 8.73563 8.31024 8.19099 8.75972C7.60535 9.24336 7.35011 9.89585 7.43259 10.6996C7.49164 11.2726 7.80935 11.6601 8.32764 11.7909C8.7532 11.8982 9.16949 11.9739 9.5648 12.0159C10.6594 12.1315 11.2348 12.7386 11.2753 13.8201C11.2827 14.0168 11.2788 14.2193 11.2744 14.4155C11.27 14.641 11.2651 14.8743 11.2773 15.1056C11.2958 15.4623 11.3241 15.8762 11.4252 16.273C11.5891 16.9181 12.0074 17.0143 12.2421 17.0143C12.3993 17.0143 12.5711 16.9733 12.7521 16.8923C13.5032 16.5565 14.1757 16.0782 14.8087 15.4301C15.2777 14.9499 15.5266 14.3457 15.5915 13.5292C15.6242 13.1208 15.7584 12.7216 16.0092 12.2979V12.4585C16.0092 13.6127 16.0097 14.8059 16.0044 15.9767C16.0019 15.9962 15.9756 16.0377 15.958 16.0499C15.4168 16.4203 15.0127 16.9172 14.7574 17.5267C14.7413 17.5648 14.6989 17.6111 14.6579 17.6351C13.5091 18.3046 12.1738 18.6589 10.7966 18.6589C9.68388 18.6589 8.55896 18.4242 7.54484 17.9801C6.48727 17.5169 5.57905 16.8532 4.84602 16.007C3.34386 14.273 2.68746 12.2374 2.89488 9.95735ZM15.9809 7.51573C15.9805 7.83783 15.9809 8.15944 15.9809 8.48154C15.9809 9.10768 15.9819 9.75481 15.9761 10.3912C15.9751 10.4942 15.9438 10.6128 15.8921 10.7074C15.7545 10.9607 15.6056 11.2145 15.4612 11.4605C15.3772 11.604 15.2928 11.7474 15.2103 11.8919C14.8912 12.4492 14.713 13.0534 14.6798 13.6874C14.6598 14.0705 14.5276 14.4018 14.287 14.6732C13.7746 15.2505 13.1557 15.7215 12.4486 16.0719C12.3261 16.1329 12.2714 16.1417 12.2499 16.1417C12.2499 16.1417 12.248 16.1417 12.2475 16.1417C12.2397 16.1309 12.2168 16.0899 12.2007 15.9631C12.1587 15.6327 12.1455 15.2896 12.1328 14.9577C12.127 14.8006 12.1206 14.6385 12.1113 14.4785C12.1045 14.3555 12.1006 14.2286 12.0972 14.1061C12.0889 13.8094 12.0801 13.5024 12.0225 13.2028C11.8049 12.072 11.0655 11.3829 9.88446 11.2096C9.79905 11.1969 9.71316 11.1852 9.62726 11.173C9.33396 11.1315 9.0304 11.0891 8.73905 11.0266C8.34472 10.9422 8.20221 10.7255 8.26273 10.3029C8.32422 9.87194 8.51895 9.54935 8.85813 9.31705C9.40911 8.93931 9.89714 8.71726 10.3944 8.61819C10.4037 8.61624 10.4145 8.61526 10.4262 8.61526C10.4921 8.61526 10.5833 8.64357 10.6585 8.68798C10.7981 8.76997 10.9284 8.86855 11.066 8.9725C11.1231 9.01593 11.1802 9.05888 11.2383 9.10134C11.413 9.22823 11.6179 9.29265 11.8478 9.29265C11.9288 9.29265 12.0157 9.28435 12.105 9.26873C12.6916 9.1643 13.247 8.94273 13.7565 8.61038C13.8429 8.55377 13.9263 8.48593 14.0049 8.40834C14.1899 8.22581 14.2821 8.00815 14.265 7.79537C14.2489 7.5943 14.1396 7.41617 13.9493 7.2805C13.694 7.09846 13.4041 6.9706 13.124 6.84712L13.0235 6.80271C12.8717 6.73537 12.715 6.67729 12.5637 6.62165C12.3959 6.55967 12.2373 6.50111 12.0825 6.42986C11.9513 6.36934 11.8117 6.27222 11.6555 6.13216C11.6053 6.08677 11.4979 5.96623 11.5896 5.82226C11.82 5.4616 12.0215 5.16683 12.2543 4.89939C12.3685 4.76811 12.5262 4.6993 12.7111 4.6993C12.7614 4.6993 12.8136 4.70467 12.8668 4.71443C12.9483 4.73005 13.0293 4.73053 13.0947 4.73151H13.1064C13.432 4.73151 13.7126 4.59584 13.8766 4.35914C14.0313 4.13562 14.0654 3.84622 13.9737 3.55633C15.1591 4.06681 16.143 4.82033 16.9663 5.84715C16.3143 6.18682 15.9829 6.74854 15.9814 7.51719L15.9809 7.51573Z" fill="currentColor"/>
  <path d="M20.1746 10.339C20.2488 10.3409 20.3288 10.3419 20.4254 10.3419C20.4874 10.3419 20.5494 10.3419 20.6119 10.3409C20.6734 10.3409 20.7344 10.34 20.7993 10.34C20.8632 10.34 20.9266 10.34 20.9906 10.3409C21.056 10.3409 21.1219 10.3419 21.1873 10.3419C21.2868 10.3419 21.3693 10.3409 21.4459 10.3385C21.7295 10.3297 21.9091 10.1623 21.9144 9.90171C21.9198 9.64257 21.7407 9.46395 21.4688 9.45711C21.2619 9.45175 21.0452 9.44931 20.8246 9.44931C20.6041 9.44931 20.3869 9.45175 20.156 9.45663C19.8832 9.46248 19.7027 9.63964 19.7066 9.89781C19.7105 10.1613 19.8896 10.3307 20.1746 10.339Z" fill="currentColor"/>
  <path d="M21.4293 11.2545C21.3493 11.2545 21.2688 11.254 21.1887 11.254H20.4381C20.3552 11.254 20.2722 11.254 20.1887 11.2545C19.9032 11.256 19.7193 11.419 19.708 11.6791C19.7012 11.8392 19.7632 11.9397 19.8159 11.9954C19.8984 12.0822 20.0209 12.1291 20.1702 12.1305C20.4088 12.133 20.6231 12.134 20.8246 12.134C21.0487 12.134 21.2556 12.1325 21.4566 12.1296C21.604 12.1276 21.7251 12.0803 21.8066 11.9929C21.8598 11.9363 21.9213 11.8343 21.9125 11.6713C21.8988 11.4117 21.7182 11.2565 21.4293 11.2545Z" fill="currentColor"/>
  <path d="M21.441 13.0607H20.6163C20.4713 13.0607 20.3264 13.0607 20.18 13.0607C20.0262 13.0607 19.9057 13.1037 19.8213 13.1891C19.7685 13.2423 19.7061 13.3384 19.7075 13.4956C19.71 13.764 19.891 13.9304 20.1809 13.9304C20.261 13.9304 20.3415 13.9304 20.4215 13.9304H21.196C21.2775 13.9304 21.3595 13.9304 21.4415 13.9304C21.7314 13.9294 21.9115 13.7625 21.913 13.4956C21.9134 13.3374 21.851 13.2408 21.7983 13.1881C21.7143 13.1042 21.5943 13.0607 21.441 13.0607Z" fill="currentColor"/>
  <path d="M20.1668 8.52839C20.2434 8.53034 20.3254 8.53132 20.425 8.53132C20.4899 8.53132 20.5548 8.53132 20.6202 8.53034C20.6841 8.53034 20.7475 8.52937 20.8144 8.52937C20.8783 8.52937 20.9418 8.52937 21.0057 8.52937C21.0701 8.52937 21.1341 8.52937 21.198 8.52937C21.2834 8.52937 21.3688 8.52937 21.4537 8.52741C21.728 8.52302 21.9051 8.35465 21.9056 8.09795C21.9056 7.83783 21.7285 7.66897 21.4537 7.66702C21.2312 7.66555 21.0086 7.66458 20.7856 7.66458C20.5806 7.66458 20.3757 7.66555 20.1707 7.6675C19.893 7.67043 19.7197 7.8349 19.7193 8.096C19.7193 8.35416 19.8901 8.51912 20.1668 8.52644V8.52839Z" fill="currentColor"/>
  <path d="M21.4474 14.8645C21.2268 14.8635 21.0067 14.863 20.7861 14.863C20.587 14.863 20.3879 14.863 20.1887 14.8645C19.8935 14.866 19.7178 15.028 19.7188 15.2974C19.7197 15.5531 19.8886 15.7117 20.1702 15.7225C20.2473 15.7254 20.3293 15.7268 20.4289 15.7268C20.4962 15.7268 20.564 15.7264 20.6314 15.7254C20.6929 15.7249 20.7544 15.7244 20.8159 15.7244H20.8334C20.8939 15.7244 20.954 15.7244 21.0145 15.7254C21.0755 15.7254 21.1365 15.7264 21.1975 15.7264C21.2995 15.7264 21.383 15.7254 21.4601 15.7225C21.7353 15.7137 21.911 15.5424 21.9066 15.2857C21.9022 15.0275 21.726 14.866 21.4474 14.8645Z" fill="currentColor"/>
  <path d="M6.37942 13.6688C6.84012 13.6688 7.17003 13.3126 7.18223 12.8021C7.19199 12.376 7.06998 11.9632 6.79766 11.5025C6.66296 11.2745 6.63612 11.0535 6.71177 10.786C6.78204 10.5357 6.84012 10.2799 6.89575 10.032C6.92016 9.92465 6.94407 9.81679 6.96945 9.70991L7.00605 9.55472L6.93187 9.53422C6.9265 9.44638 6.92113 9.3556 6.90795 9.26434C6.79571 8.50204 6.36478 8.06427 5.72448 8.06427C5.54049 8.06427 5.34284 8.10185 5.13591 8.17603C4.73134 8.32098 4.31212 8.50936 3.88948 8.7358C3.29262 9.05644 3.09692 9.67429 3.40194 10.2741C3.55518 10.5747 3.77284 10.8368 3.98319 11.0901C4.09055 11.2189 4.0925 11.2633 4.0437 11.3585C3.87289 11.6918 3.90705 12.0388 4.13691 12.3101C4.72011 12.9988 5.36773 13.4316 6.11588 13.6322C6.20519 13.6561 6.29401 13.6688 6.37942 13.6688ZM4.64788 10.5293C4.43803 10.2882 4.28088 10.0706 4.16766 9.86413C4.13887 9.81142 4.10959 9.73236 4.13447 9.65428C4.15497 9.59035 4.20914 9.53569 4.29113 9.49616C4.67619 9.31071 5.09248 9.11891 5.5278 8.97543C5.59808 8.95249 5.6625 8.94078 5.7196 8.94078C5.90993 8.94078 6.02169 9.08084 6.05244 9.35756C6.05781 9.40636 6.05927 9.45711 6.06122 9.5108C6.0622 9.53715 6.06317 9.56399 6.06415 9.59035L6.06903 9.69039C6.05927 9.74066 6.05 9.79093 6.04072 9.84022C6.00119 10.051 5.9641 10.2502 5.90456 10.4434C5.73473 10.9934 5.78597 11.4732 6.06561 11.9534C6.17835 12.1467 6.23301 12.3936 6.28669 12.6327C6.29792 12.682 6.30865 12.7313 6.31988 12.7796C6.31353 12.7782 6.30621 12.7757 6.29792 12.7733C5.73473 12.5815 5.24719 12.2555 4.84944 11.8045C4.83724 11.7782 4.83529 11.7074 4.84651 11.6825C5.03636 11.2784 4.97096 10.9007 4.64788 10.5293Z" fill="currentColor"/>
  <path d="M18.1864 17.108V15.7869C18.1864 13.3599 18.1864 10.9324 18.1854 8.50545C18.1854 8.48593 18.1864 8.46592 18.1873 8.44494C18.1917 8.35026 18.1966 8.23313 18.1327 8.13455C18.0756 8.04622 17.9204 7.8798 17.7422 7.8798C17.7369 7.8798 17.732 7.8798 17.7266 7.8798C17.5558 7.88956 17.4245 8.06427 17.3611 8.16774C17.3064 8.25656 17.3142 8.35612 17.3201 8.43566C17.3216 8.45519 17.3235 8.4752 17.3235 8.49374C17.3235 11.0242 17.3235 13.5551 17.3235 16.0856V17.1168C16.3035 17.5745 15.9043 18.2358 16.1029 19.1348C16.2738 19.9068 16.9551 20.4466 17.7593 20.4466C17.7818 20.4466 17.8037 20.4466 17.8262 20.4451C18.6407 20.4144 19.3308 19.7873 19.4318 18.9859C19.5153 18.3217 19.2342 17.4476 18.1864 17.108ZM18.3342 18.1631C18.4943 18.3237 18.5821 18.5321 18.5817 18.7492C18.5802 19.2138 18.2161 19.5784 17.752 19.5789C17.2928 19.5789 16.9189 19.208 16.918 18.7517C16.918 18.534 17.0058 18.3256 17.1659 18.1646C17.326 18.0035 17.5334 17.9152 17.7501 17.9147C17.9663 17.9147 18.1746 18.003 18.3342 18.1631Z" fill="currentColor"/>
</svg>
