<svg width="24" height="24" viewBox="0 0 24 24" fill="none" xmlns="http://www.w3.org/2000/svg">
<path d="M3.60161 21.9993C3.24259 21.9027 2.89661 21.7827 2.61586 21.5208C2.2297 21.1609 2.00584 20.7211 2.00479 20.1952C1.99801 17.2214 2.0001 14.2471 2.00114 11.2733C2.00114 11.0339 2.11281 10.9311 2.35077 10.9321C2.78546 10.9337 3.1878 11.0469 3.5463 11.2942C3.95437 11.5754 4.38593 11.7533 4.89681 11.7011C5.19008 11.6709 5.45622 11.5811 5.69418 11.4137C6.19096 11.0646 6.73107 10.8888 7.34475 10.9368C7.73821 10.9676 8.0988 11.0829 8.41973 11.3062C8.83511 11.5952 9.27867 11.7606 9.79268 11.6964C9.88713 11.6844 9.9508 11.6714 9.9508 11.5525C9.94662 10.3682 9.94662 9.18387 9.94506 7.99958C9.94506 7.98758 9.93775 7.97506 9.92575 7.93593C9.77389 7.93593 9.61369 7.93802 9.45296 7.93593C8.94783 7.92915 8.55593 7.71733 8.32945 7.26136C8.10715 6.81425 8.1609 6.37653 8.45678 5.97481C9.30163 4.82756 10.147 3.68083 10.9971 2.53776C11.5294 1.82197 12.4702 1.8204 13.0025 2.53515C13.8494 3.67301 14.6885 4.81556 15.5318 5.95603C15.8382 6.37027 15.8987 6.81738 15.6644 7.27596C15.4332 7.72933 15.0366 7.93437 14.5315 7.93541C14.3828 7.93541 14.2335 7.93541 14.0514 7.93541C14.0514 8.13992 14.0524 8.33139 14.0514 8.52338C14.0509 8.6079 14.0535 8.69346 14.041 8.77641C14.0164 8.93449 13.9094 9.02005 13.7576 9.01953C13.6052 9.01953 13.4831 8.93293 13.4779 8.77485C13.4654 8.38513 13.4643 7.99436 13.4768 7.60464C13.4821 7.43874 13.6026 7.3537 13.7691 7.35213C14.0227 7.349 14.2768 7.349 14.5304 7.35109C14.7997 7.35318 15.0168 7.25822 15.1431 7.0125C15.2725 6.76051 15.2255 6.52522 15.0591 6.3014C14.2184 5.1672 13.3813 4.03038 12.5407 2.8967C12.2364 2.48611 11.7657 2.48454 11.4641 2.89148C10.6234 4.02569 9.78694 5.1625 8.94574 6.29619C8.7798 6.52 8.72761 6.75425 8.85494 7.00676C8.98331 7.26136 9.20718 7.35579 9.48375 7.35161C9.71806 7.34796 9.95236 7.34848 10.1867 7.35161C10.4288 7.35474 10.5306 7.4523 10.5342 7.69594C10.5394 8.0601 10.5358 8.42478 10.5358 8.78946C10.5358 8.85989 10.5358 8.93084 10.5358 9.0284C10.8718 9.0284 11.1886 9.0284 11.5059 9.0284C11.5972 9.0284 11.688 9.02579 11.7793 9.02944C11.9719 9.03675 12.0856 9.13848 12.0924 9.30543C12.0997 9.47812 11.9818 9.60542 11.7851 9.61116C11.5053 9.6195 11.2251 9.61376 10.9454 9.61429C10.8165 9.61429 10.6882 9.61429 10.5483 9.61429V10.7021C10.8969 10.7021 11.234 10.7021 11.5711 10.7021C11.6556 10.7021 11.7407 10.7 11.8247 10.7078C11.9927 10.7229 12.0835 10.821 12.0919 10.988C12.0997 11.1476 11.9907 11.2723 11.8174 11.2822C11.6097 11.2947 11.401 11.2874 11.1928 11.2879C10.9856 11.2879 10.7779 11.2879 10.5535 11.2879V12.3648C10.6474 12.3689 10.7419 12.3762 10.8358 12.3768C11.1484 12.3783 11.461 12.3736 11.773 12.3794C11.9781 12.3835 12.0935 12.4952 12.0929 12.67C12.0924 12.8427 11.9755 12.9564 11.771 12.9606C11.4391 12.9673 11.1072 12.9626 10.7753 12.9632C10.7054 12.9632 10.6349 12.9632 10.5509 12.9632V14.0515C10.887 14.0515 11.2168 14.0515 11.5466 14.0515C11.6311 14.0515 11.7162 14.0473 11.8002 14.0541C11.9875 14.0692 12.0976 14.184 12.0929 14.3525C12.0888 14.5127 11.9833 14.6264 11.8028 14.6316C11.4579 14.641 11.1129 14.6363 10.768 14.6373C10.6981 14.6373 10.6287 14.6373 10.5478 14.6373V16.6527C11.52 16.0063 12.4817 16.0068 13.4654 16.6611C13.4654 16.5494 13.4654 16.4733 13.4654 16.3971C13.4654 14.2951 13.4654 12.1931 13.4654 10.0911C13.4654 10.0134 13.4628 9.9341 13.4758 9.85793C13.5024 9.70193 13.6005 9.61742 13.7592 9.61794C13.9178 9.61846 14.0143 9.70454 14.041 9.86053C14.0519 9.92418 14.0509 9.98992 14.0509 10.0551C14.0514 10.5435 14.0545 11.0313 14.0493 11.5191C14.0483 11.6411 14.0848 11.6886 14.2116 11.6996C14.6557 11.7387 15.0674 11.6599 15.4332 11.3959C16.0276 10.9676 16.6914 10.8184 17.3943 11C17.7319 11.0871 18.0507 11.2744 18.3555 11.4544C18.8116 11.7236 19.2911 11.7804 19.7822 11.6364C20.0322 11.5634 20.2597 11.4059 20.4877 11.2697C20.8186 11.072 21.1687 10.9567 21.5554 10.9358C21.737 10.9259 21.8868 10.9572 22 11.1059V20.4002C21.9864 20.4425 21.9703 20.4837 21.9598 20.527C21.7934 21.213 21.3769 21.6742 20.7132 21.9111C20.6103 21.9476 20.5034 21.9716 20.3985 22.0013H3.60161V21.9993ZM21.4103 16.7873C21.0591 16.8134 20.7998 17.0054 20.5331 17.176C20.0577 17.4802 19.5416 17.5756 18.9848 17.5198C18.5621 17.4776 18.1984 17.3007 17.8582 17.067C17.4986 16.8202 17.1041 16.7346 16.6736 16.7633C16.3141 16.7873 16.0161 16.9522 15.7275 17.1452C15.2292 17.4791 14.6833 17.585 14.091 17.5151C13.6762 17.4661 13.3234 17.2824 12.9868 17.0555C12.6497 16.8285 12.2813 16.7456 11.8774 16.7597C11.4793 16.7738 11.162 16.9668 10.8384 17.164C9.99985 17.6748 9.15813 17.6716 8.31327 17.1703C8.09097 17.0383 7.85614 16.9266 7.62393 16.8113C7.4679 16.7336 7.39328 16.5979 7.4392 16.4493C7.4846 16.3021 7.62706 16.2223 7.7977 16.2588C7.87963 16.2766 7.96312 16.3021 8.03618 16.3418C8.25848 16.4623 8.47765 16.5896 8.69578 16.7185C9.0835 16.947 9.49523 17.0002 9.93305 16.9136V12.2818C9.87826 12.2818 9.84017 12.2787 9.80207 12.2818C9.23745 12.3319 8.72135 12.2041 8.24491 11.8895C8.05183 11.7622 7.84101 11.6391 7.6208 11.5801C7.08748 11.4366 6.58652 11.5285 6.11321 11.8363C5.85595 12.0037 5.56685 12.1524 5.27097 12.2249C4.58214 12.394 3.93089 12.2677 3.34069 11.8545C3.11944 11.6991 2.88252 11.5655 2.59603 11.5446V16.1884C3.07404 16.2301 3.45445 16.48 3.84688 16.7138C4.01595 16.8145 4.21425 16.8828 4.40785 16.9209C4.87437 17.0132 5.30593 16.911 5.71088 16.6527C5.94466 16.5035 6.19775 16.3799 6.45397 16.2714C6.62096 16.2009 6.78481 16.2943 6.83543 16.4446C6.88814 16.6011 6.81195 16.7367 6.64444 16.8202C6.407 16.9391 6.17844 17.0758 5.93944 17.1922C5.73018 17.2939 5.5204 17.4092 5.29758 17.4645C4.5978 17.6377 3.9455 17.513 3.34748 17.1024C3.12309 16.948 2.88774 16.8077 2.59603 16.7889C2.59238 16.8332 2.58664 16.8713 2.58664 16.9094C2.58664 17.9894 2.58664 19.0698 2.58716 20.1498C2.58716 20.2145 2.59186 20.2802 2.60334 20.3439C2.72023 20.9944 3.23163 21.4123 3.91837 21.4128C9.30737 21.4139 14.6969 21.4128 20.0859 21.4128C20.125 21.4128 20.1642 21.4128 20.2028 21.4108C20.8358 21.3831 21.391 20.875 21.4035 20.2426C21.4265 19.0985 21.4103 17.9539 21.4103 16.7873ZM21.4082 11.4898C21.163 11.6046 20.9522 11.6985 20.7455 11.8008C20.4846 11.9302 20.2393 12.1086 19.9648 12.1905C19.2097 12.4159 18.5089 12.2714 17.8514 11.8274C17.1991 11.3871 16.5223 11.3985 15.8569 11.8222C15.5543 12.0152 15.2485 12.2067 14.8837 12.2505C14.615 12.2829 14.3426 12.2844 14.065 12.3001V16.9428C14.2591 16.9428 14.4396 16.9496 14.6191 16.9412C15.0074 16.924 15.3189 16.7169 15.6305 16.515C16.1257 16.1941 16.6689 16.1289 17.2409 16.1999C17.6688 16.2526 18.0168 16.4806 18.3732 16.6971C18.9159 17.0273 19.4879 17.0529 20.0478 16.7696C20.4914 16.5453 20.8874 16.2239 21.4077 16.1853L21.4082 11.4898Z" fill="currentColor"/>
</svg>
