<svg width="167" height="53" viewBox="0 0 167 53" fill="none"
  xmlns="http://www.w3.org/2000/svg">
  <g clip-path="url(#clip0_643_9322)">
    <path d="M112.5 46.8894L112.519 46.8283C114.473 41.7134 114.613 41.2953 114.712 40.9337H114.73C114.81 41.3094 114.969 41.7087 116.825 46.8283L116.843 46.8894H112.496H112.5ZM107.349 52.4082V52.8638C107.802 52.8451 108.55 52.8216 109.56 52.8216C110.57 52.8216 111.416 52.8451 112.126 52.8638V52.4082C110.392 52.4082 110.509 52.0935 111.986 48.3407H117.381C118.779 52.1123 118.919 52.4082 117.222 52.4082V52.8638C117.83 52.8451 118.877 52.8216 119.924 52.8216C120.971 52.8216 121.682 52.8451 122.098 52.8638V52.4082C120.953 52.4082 120.817 52.0935 118.858 47.0303L115.048 37.0916H114.656L110.705 47.0303C108.69 52.0935 108.513 52.4082 107.349 52.4082ZM97.8448 38.8342C98.144 38.8154 98.6582 38.7778 99.1304 38.7778C101.243 38.7778 102.248 40.0272 102.248 41.7368V41.7556C102.248 42.9674 101.678 43.9209 100.963 44.3718C100.393 44.7476 99.6633 44.9495 98.8125 44.9495C98.4385 44.9495 98.1814 44.9261 97.8401 44.9073V38.8342H97.8448ZM96.6807 37.3499H94.4274V37.768C96.0683 37.768 96.0683 38.0826 96.0683 42.8265V47.0303C96.0683 52.0935 96.0683 52.4082 94.4508 52.4082V52.8638C95.3203 52.8404 96.0917 52.8216 96.9939 52.8216C97.8962 52.8216 98.6348 52.8404 99.4249 52.8638V52.4082C97.8681 52.4082 97.8448 52.0888 97.8448 47.5657V46.3774C98.144 46.3774 98.6769 46.3962 99.1678 46.3962C100.491 48.4018 101.758 50.3416 103.081 52.3284C103.314 52.6666 103.674 52.8451 104.086 52.8451C104.422 52.8451 104.698 52.8263 105.077 52.8263C105.568 52.8263 106.124 52.8451 106.713 52.8451V52.4129C105.825 52.4129 105.212 51.9339 104.6 51.1025C102.445 48.0119 101.795 47.1148 101.042 46.0439V46.0063C101.515 45.8466 102.071 45.5695 102.543 45.1938C103.394 44.5174 104.179 43.2868 104.179 41.6429C104.179 39.5951 103.132 38.247 101.673 37.6928C101.019 37.4392 100.056 37.2983 99.0462 37.2983C98.6909 37.2983 98.2608 37.317 97.8401 37.317C97.4287 37.3358 97.0126 37.3593 96.6761 37.3593M76.7986 52.4082V52.8638C77.626 52.8451 78.2571 52.8263 79.164 52.8263C79.9915 52.8263 80.861 52.8451 81.81 52.8638V52.4082C80.113 52.4082 80.113 52.0513 80.113 47.0115V41.239H80.1551C81.1649 42.5494 81.8755 43.423 82.8198 44.5127C84.2222 46.1613 86.4334 48.7587 90.0471 53.0047H90.4024V42.8688C90.4024 38.1249 90.4024 37.768 91.903 37.768V37.3124C91.1317 37.3311 90.365 37.3499 89.5142 37.3499C88.6633 37.3499 87.8546 37.3311 87.0645 37.3124V37.768C88.8036 37.768 88.8036 38.1249 88.8036 42.8688C88.8036 47.6127 88.8036 48.3501 88.8223 49.1204H88.7662C87.719 47.7489 87.1066 46.9927 86.1763 45.9265C84.7552 44.2591 82.5253 41.6006 78.8695 37.2372H78.5189V47.0209C78.5189 52.056 78.5189 52.4176 76.7986 52.4176M64.513 52.4082V52.8638C65.4386 52.8451 66.8224 52.8263 68.6409 52.8263C70.4594 52.8263 72.4322 52.8451 73.816 52.8638C73.816 51.7319 73.8955 50.4825 73.9516 49.529H73.5215C73.3438 51.1354 72.7875 51.2763 71.6842 51.2951H68.7204C67.9677 51.2763 67.9303 51.234 67.9303 50.4637V45.64H70.2584C71.9975 45.64 72.4696 45.701 72.5912 46.8142H73.0026C72.9652 46.1801 72.9231 45.5226 72.9231 44.8321C72.9231 44.2544 72.9652 43.6626 73.0026 43.1459H72.5912C72.4509 44.1182 71.9554 44.1558 70.2023 44.1558H67.9303V38.8201H71.0298C72.6707 38.8201 72.9885 39.116 73.068 40.7411H73.4981C73.4981 39.5528 73.5589 38.3973 73.6384 37.3077C72.2967 37.3264 70.3613 37.3452 68.5053 37.3452C66.8084 37.3452 65.5228 37.3264 64.6159 37.3077V37.7633C66.0744 37.7633 66.0744 38.0779 66.0744 42.8218V47.0303C66.0744 52.0888 66.0744 52.4082 64.5177 52.4082M51.8395 52.4082V52.8638C52.7651 52.8451 54.1489 52.8263 55.9627 52.8263C57.7765 52.8263 59.754 52.8451 61.1378 52.8638C61.1378 51.7319 61.2173 50.4825 61.2733 49.529H60.8386C60.6609 51.1354 60.1046 51.2763 59.0014 51.2951H56.0422C55.2942 51.2763 55.2521 51.234 55.2521 50.4637V45.64H57.5802C59.3192 45.64 59.7914 45.701 59.913 46.8142H60.3243C60.2869 46.1801 60.2449 45.5226 60.2449 44.8321C60.2449 44.2544 60.2869 43.6626 60.3243 43.1459H59.913C59.7727 44.1182 59.2819 44.1558 57.5241 44.1558H55.2521V38.8201H58.3516C59.9924 38.8201 60.3056 39.116 60.3851 40.7411H60.8199C60.8199 39.5528 60.8807 38.3973 60.9601 37.3077C59.6184 37.3264 57.6784 37.3452 55.8271 37.3452C54.1302 37.3452 52.8446 37.3264 51.9376 37.3077V37.7633C53.3962 37.7633 53.3962 38.0779 53.3962 42.8218V47.0303C53.3962 52.0888 53.3962 52.4082 51.8395 52.4082ZM42.99 38.8389C43.3827 38.8201 43.8034 38.7966 44.1774 38.7966C44.8693 38.7966 45.5985 38.9187 46.1502 39.2146C47.1366 39.7125 47.6087 40.7411 47.6087 41.8918V41.9106C47.6087 42.5682 47.4311 43.1788 47.2114 43.6391C46.9168 44.1745 46.4587 44.5926 45.9258 44.8509C45.3928 45.128 44.6636 45.2501 43.9904 45.2689C43.6164 45.2877 43.3172 45.2689 42.9806 45.2501V38.8435L42.99 38.8389ZM41.7278 37.3499H39.5726V37.7867C41.2135 37.7867 41.2135 38.0826 41.2135 42.803V47.0303C41.2135 52.0888 41.2322 52.4035 39.6147 52.4035V52.8591C40.4235 52.8404 41.1948 52.8216 42.1204 52.8216C43.0461 52.8216 43.78 52.8404 44.6682 52.8591V52.4035C43.0087 52.4035 42.99 52.0842 42.99 47.7019V46.7297C43.406 46.7485 43.981 46.7485 44.4719 46.7062C45.4022 46.6498 46.3465 46.4103 47.0945 46.011C47.9266 45.5742 48.539 44.9214 48.913 44.2074C49.2496 43.5921 49.5254 42.7983 49.5254 41.8073C49.5254 39.8393 48.5764 38.4913 47.0758 37.8196C46.2483 37.4251 45.1825 37.2842 44.0325 37.2842C43.6024 37.2842 43.2003 37.3077 42.831 37.3077C42.457 37.3264 42.1017 37.3452 41.7231 37.3452M9.4385 52.8638C9.4385 51.7554 9.4759 50.7784 9.55538 49.3928H9.12061C9.06452 50.1068 8.92427 50.6234 8.69053 50.8583C8.39601 51.1964 7.8958 51.2951 7.26937 51.2951H4.04839C3.6744 51.2951 3.53416 51.1777 3.53416 50.8019V42.8265C3.53416 38.0826 3.55753 37.768 5.17503 37.768V37.3124C4.40368 37.3311 3.57623 37.3499 2.60854 37.3499C1.64084 37.3499 0.813389 37.3311 0.0420375 37.3124V37.768C1.70161 37.768 1.70161 38.0826 1.70161 42.8265V47.035C1.70161 52.0935 1.72031 52.3895 0.00463867 52.4129V52.8685C0.790015 52.8497 2.43557 52.831 4.26811 52.831C6.10066 52.831 8.19967 52.8497 9.44318 52.8685M20.6161 46.8894H16.2685L16.2872 46.8283C18.2413 41.7134 18.3815 41.2953 18.4797 40.9337H18.4984C18.5779 41.3094 18.7368 41.7134 20.5974 46.8283L20.6161 46.8894ZM23.6968 52.8216C24.744 52.8216 25.4546 52.8451 25.8706 52.8638V52.4082C24.7253 52.4082 24.5897 52.0935 22.631 47.0303L18.8209 37.0916H18.4236L14.4733 47.0303C12.4631 52.0935 12.2808 52.4082 11.1168 52.4082V52.8638C11.5702 52.8451 12.3182 52.8216 13.328 52.8216C14.3378 52.8216 15.1839 52.8451 15.8945 52.8638V52.4082C14.1601 52.4082 14.277 52.0935 15.7589 48.3407H21.1444C22.5468 52.1123 22.6871 52.4082 20.9901 52.4082V52.8638C21.5978 52.8451 22.645 52.8216 23.6922 52.8216M35.426 41.9106C35.426 42.5682 35.2484 43.1788 35.0334 43.6391C34.7388 44.1745 34.2807 44.5926 33.7478 44.8509C33.2148 45.128 32.4856 45.2501 31.8171 45.2689C31.4431 45.2877 31.1439 45.2689 30.8073 45.2501V38.8435C31.2 38.8248 31.616 38.8013 31.9947 38.8013C32.6866 38.8013 33.4159 38.9234 33.9722 39.2193C34.9586 39.7172 35.4307 40.7458 35.4307 41.8965V41.9153L35.426 41.9106ZM36.7303 44.2121C37.0669 43.5968 37.3427 42.803 37.3427 41.812C37.3427 39.844 36.3937 38.496 34.8931 37.8243C34.0657 37.4298 32.9998 37.2889 31.8545 37.2889C31.4244 37.2889 31.027 37.3124 30.653 37.3124C30.279 37.3311 29.9191 37.3499 29.5451 37.3499H27.39V37.7867C29.0308 37.7867 29.0308 38.0826 29.0308 42.803V47.0303C29.0308 52.0888 29.0542 52.4035 27.432 52.4035V52.8591C28.2408 52.8404 29.0121 52.8216 29.9378 52.8216C30.8634 52.8216 31.5973 52.8404 32.4856 52.8591V52.4035C30.826 52.4035 30.8073 52.0842 30.8073 47.7019V46.7297C31.2233 46.7485 31.7937 46.7485 32.2892 46.7062C33.2148 46.6498 34.1638 46.4103 34.9165 46.011C35.7439 45.5742 36.3563 44.9214 36.7303 44.2074M50.8811 13.607C46.1174 15.9555 41.6904 20.3001 37.9364 24.532C38.5255 24.7105 41.1995 22.3668 43.2845 21.4509C60.0438 14.1002 78.2337 31.0608 95.8907 24.5555C101.795 22.3809 106.951 18.3321 111.042 13.4661C88.1491 24.997 71.7123 3.33486 50.8811 13.607ZM138.544 37.7633V37.3077C137.773 37.3264 137.006 37.3452 136.155 37.3452C135.304 37.3452 134.496 37.3264 133.706 37.3077V37.7633C135.445 37.7633 135.445 38.1202 135.445 42.8641C135.445 47.608 135.445 48.3454 135.463 49.1157H135.407C134.36 47.7442 133.748 46.988 132.817 45.9218C131.401 44.2544 129.166 41.5959 125.511 37.2325H125.155V47.0162C125.155 52.0513 125.155 52.4129 123.44 52.4129V52.8685C124.267 52.8497 124.898 52.831 125.805 52.831C126.637 52.831 127.502 52.8497 128.451 52.8685V52.4129C126.754 52.4129 126.754 52.056 126.754 47.0162V41.2437H126.791C127.801 42.5541 128.512 43.4277 129.456 44.5174C130.859 46.166 133.07 48.7634 136.683 53.0094H137.039V42.8735C137.039 38.1296 137.039 37.7726 138.539 37.7726M152.19 40.8585H152.625V37.3264C151.124 37.3452 149.366 37.3452 147.492 37.3452H145.655C144.074 37.3452 142.359 37.3452 140.479 37.3264V40.8585H140.896C141.031 39.1723 141.368 38.7966 142.91 38.7966H145.655V47.0303C145.655 52.1076 145.655 52.4082 143.897 52.4082V52.8638C144.57 52.8451 145.594 52.8263 146.604 52.8263C147.613 52.8263 148.558 52.8451 149.268 52.8638V52.4082C147.492 52.4082 147.492 52.1076 147.492 47.0303V38.7966H150.273C151.779 38.7966 152.111 39.1488 152.19 40.8585ZM161.75 46.8894H157.402L157.421 46.8283C159.375 41.7134 159.511 41.2953 159.614 40.9337H159.637C159.712 41.3094 159.875 41.7087 161.727 46.8283L161.75 46.8894ZM167 52.8638V52.4082C165.855 52.4082 165.719 52.0935 163.76 47.0303L159.95 37.0916H159.553L155.603 47.0303C153.588 52.0935 153.41 52.4082 152.241 52.4082V52.8638C152.695 52.8451 153.448 52.8216 154.457 52.8216C155.467 52.8216 156.313 52.8451 157.024 52.8638V52.4082C155.289 52.4082 155.406 52.0935 156.888 48.3407H162.278C163.681 52.1123 163.821 52.4082 162.124 52.4082V52.8638C162.732 52.8451 163.784 52.8216 164.826 52.8216C165.869 52.8216 166.584 52.8451 167 52.8638Z" fill="currentColor"/>
    <path d="M129.003 2.10884C111.215 11.0659 98.4477 -5.76788 82.2634 2.21687C78.5609 4.04397 75.1249 7.41636 72.2078 10.7089C72.6706 10.8404 74.7415 9.0274 76.3637 8.31347C89.3832 2.59732 103.515 15.7816 117.236 10.723C121.822 9.0321 125.828 5.88517 129.003 2.10415" fill="currentColor"/>
  </g>
  <defs>
    <clipPath id="clip0_643_9322">
      <rect width="167" height="53" fill="currentColor"/>
    </clipPath>
  </defs>
</svg>
