<svg width="28" height="28" viewBox="0 0 28 28" fill="none"
  xmlns="http://www.w3.org/2000/svg">
  <path d="M20.2352 8.58379C20.2253 9.53703 19.9769 10.4242 19.6102 11.2996C18.6402 13.6132 17.3183 15.7445 16.1846 17.9733C15.4581 19.4007 14.7799 20.8468 14.4319 22.4241C14.4191 22.4842 14.3166 22.5237 14.2545 22.5729C14.2496 22.5769 14.2387 22.5729 14.2298 22.5729C13.6453 22.5986 13.6492 22.5976 13.5014 22.0288C13.1534 20.6872 12.5915 19.4283 11.9507 18.2079C11.1306 16.6465 10.2493 15.1175 9.45475 13.5432C8.92046 12.4845 8.37236 11.409 8.03326 10.2803C6.93904 6.63491 9.41433 2.90177 13.1889 2.38917C16.579 1.92881 19.7532 4.37649 20.1682 7.77446C20.2007 8.04259 20.2135 8.31368 20.2362 8.5828L20.2352 8.58379ZM10.892 8.56604C10.892 10.2764 12.278 11.6683 13.9883 11.6781C15.7016 11.687 17.1073 10.2833 17.1063 8.56308C17.1063 6.85178 15.7194 5.45986 14.009 5.45197C12.2948 5.44409 10.891 6.84586 10.891 8.56703L10.892 8.56604Z" fill="currentColor"/>
  <path d="M6.56839 8.42409C6.64035 9.07273 6.71034 9.69673 6.78132 10.3286C5.87736 10.4972 5.25534 11.0009 5.09071 11.9354C4.94975 12.7329 5.23069 13.4072 5.90694 13.8606C6.68373 14.3821 7.46939 14.3092 8.24027 13.7591C8.42165 14.1012 8.59515 14.4324 8.77259 14.7626C8.97073 15.1313 9.16493 15.502 9.3749 15.8637C9.45869 16.0077 9.45475 16.1151 9.37687 16.2659C8.79723 17.3966 8.21365 18.5263 7.66753 19.6728C7.46939 20.0898 7.36983 20.5541 7.22196 21.0065H6.83554C6.54966 20.2721 6.31603 19.5358 5.98383 18.8467C5.5008 17.8422 4.93693 16.8771 4.4263 15.8844C4.07043 15.1924 3.71851 14.4955 3.41391 13.7788C2.40644 11.408 3.98763 8.68434 6.50629 8.42409C6.53093 8.42113 6.55656 8.42409 6.56839 8.42409Z" fill="currentColor"/>
  <path d="M19.766 13.765C20.5388 14.3121 21.3304 14.3831 22.1121 13.8478C22.7854 13.3865 23.0555 12.7073 22.9067 11.9137C22.7341 10.995 22.118 10.4932 21.218 10.3286C21.289 9.6987 21.359 9.07569 21.4349 8.39846C21.7109 8.46648 22.0155 8.51577 22.3014 8.61632C24.4681 9.37931 25.515 11.8309 24.5263 13.908C23.8569 15.3137 23.1147 16.6849 22.4049 18.0709C21.9445 18.9699 21.5167 19.8818 21.2841 20.8725C21.2713 20.9287 21.1875 20.9947 21.1263 21.0065C21.0169 21.0282 20.8996 21.0125 20.7764 21.0125C20.3752 19.2873 19.4712 17.8057 18.6412 16.2906C18.5505 16.125 18.5545 16.0057 18.6442 15.845C18.9931 15.2131 19.3263 14.5734 19.6654 13.9356C19.695 13.8794 19.7295 13.8261 19.766 13.7631V13.765Z" fill="currentColor"/>
  <path d="M25.6668 24.8925H2.3335C3.24238 22.847 4.14437 20.8173 5.07494 18.7225C5.22971 19.0586 5.36772 19.3337 5.47911 19.6186C5.50474 19.6846 5.45348 19.7891 5.41799 19.868C4.83047 21.1958 4.23999 22.5217 3.65049 23.8485C3.61501 23.9284 3.58543 24.0112 3.546 24.1088H24.4602C24.2927 23.7302 24.1349 23.3714 23.9762 23.0146C23.5169 21.9805 23.0604 20.9444 22.5942 19.9133C22.5192 19.7487 22.5074 19.6127 22.5942 19.451C22.7095 19.2371 22.8041 19.0113 22.9313 18.7402C23.855 20.8183 24.755 22.844 25.6649 24.8925H25.6668Z" fill="currentColor"/>
  <path d="M8.96777 18.6683C9.09297 18.4258 9.20436 18.2 9.32857 17.9822C9.35321 17.9388 9.43207 17.9112 9.48925 17.9063C9.61148 17.8944 9.73471 17.9023 9.85793 17.9023C10.5568 17.9023 10.6229 17.9526 10.8516 18.6683H8.96777Z" fill="currentColor"/>
  <path d="M19.0247 18.6742H17.1349C17.266 18.4199 17.3804 18.1882 17.5066 17.9644C17.5273 17.928 17.6002 17.9092 17.6515 17.9053C17.757 17.8964 17.8634 17.9023 17.9699 17.9023C18.4812 17.9023 18.8334 18.1596 19.0247 18.6742Z" fill="currentColor"/>
</svg>
