<svg width="225" height="70" viewBox="0 0 225 70" fill="none" xmlns="http://www.w3.org/2000/svg">
<path d="M38.8776 14.6529V0.727296L20.3328 11.0119V30.5506L13.7178 33.8725V41.9048L5.52971 45.4148V57.4728C6.29679 57.2445 7.12603 57.0258 8.00796 56.8154V47.0772L13.7178 44.6295V55.7268C14.5197 55.6021 15.3468 55.4848 16.1972 55.3738V35.4293L25.9964 30.5041V54.4734C26.8109 54.4258 27.6369 54.3846 28.4746 54.3487V26.4573L22.8069 29.3056V12.5011L36.3909 4.96649V54.1933C37.2244 54.1933 38.0505 54.2028 38.8692 54.2144V17.5128L44.4737 20.6106V54.3941C45.3114 54.4332 46.1374 54.4787 46.9519 54.5304V19.1246L38.8776 14.6529Z" fill="white"/>
<path d="M54.8724 27.436C54.8724 27.436 50.8569 33.1432 50.8569 38.2533C50.8569 42.9089 52.3468 45.4613 54.2866 45.8808V55.1815C54.6807 55.2269 55.0695 55.2734 55.453 55.3231V45.883C57.395 45.4602 58.8849 42.911 58.8849 38.2554C58.887 33.1432 54.8724 27.436 54.8724 27.436Z" fill="white"/>
<path d="M63.7381 38.1423C63.7381 38.1423 60.8995 42.1278 60.8995 45.6959C60.8995 48.8084 61.8657 50.5756 63.1544 50.9751V56.6252C63.5537 56.715 63.9436 56.8038 64.3208 56.8968V50.9782C65.6094 50.5777 66.5778 48.8116 66.5778 45.6938C66.5778 42.1278 63.7381 38.1423 63.7381 38.1423Z" fill="white"/>
<path d="M42.773 2.2619C50.9211 -0.96373 60.4085 2.32743 64.7254 10.2277C69.0423 18.1279 66.7032 27.9211 59.6087 33.0745C59.6446 33.4761 59.673 33.8746 59.6941 34.2698C68.2457 28.4802 70.4985 16.8333 64.7264 8.25553C59.6951 0.78014 50.0666 -2.03964 41.8153 1.54639C42.1345 1.77679 42.4548 2.01565 42.773 2.2619Z" fill="white"/>
<path d="M45.9636 5.04364C53.5079 3.23318 61.087 7.89936 62.892 15.4656C64.0489 20.3147 62.5643 25.4173 58.9881 28.8808C59.0693 29.2792 59.1441 29.6755 59.2126 30.0708C65.4514 24.5475 66.0446 14.9964 60.5381 8.73853C56.689 4.36511 50.6756 2.60433 45.0848 4.21292C45.3777 4.48243 45.6717 4.76039 45.9636 5.04364Z" fill="white"/>
<path d="M48.9603 8.28724C54.7197 8.13716 59.5097 12.6976 59.6593 18.4746C59.7162 20.655 59.0924 22.7973 57.8754 24.6046C58.0071 25.0178 58.1315 25.4289 58.2463 25.839C62.1523 20.8442 61.2809 13.6193 56.3012 9.70241C53.9821 7.87822 51.0508 7.02002 48.1173 7.30644C48.3986 7.62668 48.6789 7.95432 48.9603 8.28724Z" fill="white"/>
<path d="M36 70.0002C26.1797 70.0002 16.9579 69.1747 10.0321 67.675C2.11368 65.9607 0 63.9664 0 63.0585C0 62.1506 2.11368 60.1563 10.0321 58.443C16.9579 56.9444 26.1797 56.1179 36 56.1179C45.8203 56.1179 55.0421 56.9433 61.9679 58.443C69.8863 60.1563 72 62.1506 72 63.0585C72 63.9664 69.8863 65.9639 61.9679 67.676C55.0421 69.1747 45.8203 70.0002 36 70.0002Z" fill="white"/>
<path d="M110.28 44.12C109.88 44.7333 109.32 45.36 108.6 46C107.907 46.64 107.08 47.24 106.12 47.8C105.16 48.3333 104.107 48.7733 102.96 49.12C101.813 49.4667 100.6 49.64 99.32 49.64C97.32 49.64 95.4933 49.2933 93.84 48.6C92.1867 47.9067 90.76 46.9467 89.56 45.72C88.36 44.4667 87.4267 43 86.76 41.32C86.0933 39.64 85.76 37.8 85.76 35.8C85.76 33.8533 86.0933 32.0267 86.76 30.32C87.4267 28.6133 88.36 27.12 89.56 25.84C90.7867 24.56 92.24 23.5467 93.92 22.8C95.6 22.0533 97.4533 21.68 99.48 21.68C100.787 21.68 101.987 21.8267 103.08 22.12C104.173 22.3867 105.16 22.76 106.04 23.24C106.947 23.72 107.747 24.2933 108.44 24.96C109.133 25.6 109.747 26.2933 110.28 27.04L106.72 30.2C105.867 28.9733 104.867 27.9867 103.72 27.24C102.6 26.4933 101.187 26.12 99.48 26.12C98.1733 26.12 97 26.3867 95.96 26.92C94.92 27.4267 94.0267 28.12 93.28 29C92.56 29.8533 92 30.8667 91.6 32.04C91.2267 33.1867 91.04 34.4 91.04 35.68C91.04 36.96 91.2267 38.16 91.6 39.28C92 40.4 92.56 41.3733 93.28 42.2C94 43.0267 94.8533 43.68 95.84 44.16C96.8533 44.64 97.9867 44.88 99.24 44.88C100.387 44.88 101.36 44.7467 102.16 44.48C102.987 44.2133 103.68 43.88 104.24 43.48C104.827 43.08 105.307 42.6667 105.68 42.24C106.08 41.7867 106.44 41.4 106.76 41.08L110.28 44.12ZM113.548 22.32H118.588V27.28H113.548V22.32ZM113.708 30.24H118.428V49H113.708V30.24ZM124.873 34.08H121.673V30.24H124.873V24.16H129.593V30.24H134.633V34.08H129.593V42.28C129.593 43.3467 129.766 44.1733 130.113 44.76C130.486 45.32 131.073 45.6 131.873 45.6C132.62 45.6 133.206 45.4933 133.633 45.28C134.086 45.0667 134.513 44.8133 134.913 44.52L136.913 47.44C135.98 48.2133 135.06 48.76 134.153 49.08C133.246 49.4267 132.233 49.6 131.113 49.6C129.966 49.6 128.993 49.4267 128.193 49.08C127.393 48.76 126.74 48.2933 126.233 47.68C125.753 47.0667 125.406 46.3333 125.193 45.48C124.98 44.6 124.873 43.64 124.873 42.6V34.08ZM139.541 52.72C139.808 52.9333 140.101 53.1333 140.421 53.32C140.741 53.5333 141.141 53.64 141.621 53.64C142.261 53.64 142.781 53.3733 143.181 52.84C143.608 52.3067 144.048 51.48 144.501 50.36L145.101 48.84L136.661 30.24H142.101L147.461 43.08L152.181 30.24H157.341L149.501 49C149.128 49.9333 148.754 50.8933 148.381 51.88C148.008 52.8667 147.541 53.7733 146.981 54.6C146.448 55.4533 145.781 56.1467 144.981 56.68C144.181 57.2133 143.168 57.48 141.941 57.48C140.874 57.48 139.981 57.3467 139.261 57.08C138.568 56.84 137.954 56.4933 137.421 56.04L139.541 52.72ZM162.315 41.48C162.635 41.8533 163.008 42.2533 163.435 42.68C163.888 43.08 164.381 43.4667 164.915 43.84C165.475 44.1867 166.088 44.48 166.755 44.72C167.448 44.96 168.221 45.08 169.075 45.08C170.648 45.08 171.808 44.72 172.555 44C173.328 43.28 173.715 42.4133 173.715 41.4C173.715 40.84 173.608 40.3467 173.395 39.92C173.181 39.4667 172.821 39.08 172.315 38.76C171.808 38.4133 171.141 38.1067 170.315 37.84C169.515 37.5733 168.515 37.32 167.315 37.08C166.088 36.84 165.021 36.4667 164.115 35.96C163.235 35.4533 162.501 34.8533 161.915 34.16C161.328 33.4667 160.888 32.7067 160.595 31.88C160.301 31.0267 160.155 30.16 160.155 29.28C160.155 28.2667 160.341 27.3067 160.715 26.4C161.088 25.4667 161.661 24.6533 162.435 23.96C163.208 23.24 164.168 22.6667 165.315 22.24C166.488 21.8133 167.861 21.6 169.435 21.6C170.848 21.6 172.061 21.76 173.075 22.08C174.088 22.4 174.928 22.7733 175.595 23.2C176.288 23.6267 176.821 24.0533 177.195 24.48C177.568 24.88 177.835 25.1733 177.995 25.36L174.675 28.48C174.541 28.3733 174.328 28.1867 174.035 27.92C173.741 27.6267 173.368 27.3467 172.915 27.08C172.488 26.8133 171.968 26.5733 171.355 26.36C170.741 26.1467 170.048 26.04 169.275 26.04C168.581 26.04 167.981 26.1333 167.475 26.32C166.968 26.5067 166.541 26.7467 166.195 27.04C165.875 27.3333 165.635 27.6667 165.475 28.04C165.315 28.3867 165.235 28.72 165.235 29.04C165.235 29.52 165.315 29.9467 165.475 30.32C165.661 30.6933 165.955 31.04 166.355 31.36C166.781 31.68 167.355 31.9733 168.075 32.24C168.795 32.48 169.701 32.7067 170.795 32.92C171.835 33.1333 172.835 33.4533 173.795 33.88C174.755 34.3067 175.595 34.8667 176.315 35.56C177.061 36.2267 177.648 37.0533 178.075 38.04C178.528 39 178.755 40.16 178.755 41.52C178.755 42.6933 178.515 43.7733 178.035 44.76C177.555 45.7467 176.888 46.6133 176.035 47.36C175.181 48.1067 174.168 48.68 172.995 49.08C171.821 49.5067 170.541 49.72 169.155 49.72C167.821 49.72 166.608 49.56 165.515 49.24C164.448 48.92 163.475 48.52 162.595 48.04C161.741 47.5333 160.995 46.9867 160.355 46.4C159.741 45.8133 159.221 45.2533 158.795 44.72L162.315 41.48ZM200.835 46.28C200.755 46.36 200.528 46.5867 200.155 46.96C199.808 47.3067 199.288 47.68 198.595 48.08C197.928 48.48 197.062 48.84 195.995 49.16C194.955 49.48 193.702 49.64 192.235 49.64C190.742 49.64 189.382 49.3867 188.155 48.88C186.928 48.3733 185.875 47.68 184.995 46.8C184.142 45.8933 183.475 44.8133 182.995 43.56C182.542 42.3067 182.315 40.92 182.315 39.4C182.315 38.0133 182.542 36.7333 182.995 35.56C183.475 34.36 184.128 33.32 184.955 32.44C185.808 31.56 186.808 30.8667 187.955 30.36C189.128 29.8533 190.422 29.6 191.835 29.6C193.542 29.6 194.982 29.92 196.155 30.56C197.355 31.1733 198.315 31.9867 199.035 33C199.755 34.0133 200.275 35.16 200.595 36.44C200.915 37.72 201.075 39.0267 201.075 40.36V41.04H187.075C187.075 41.7333 187.222 42.36 187.515 42.92C187.835 43.48 188.235 43.96 188.715 44.36C189.222 44.76 189.782 45.0667 190.395 45.28C191.035 45.4933 191.662 45.6 192.275 45.6C193.182 45.6 193.968 45.52 194.635 45.36C195.328 45.1733 195.915 44.9733 196.395 44.76C196.875 44.52 197.262 44.28 197.555 44.04C197.875 43.7733 198.115 43.56 198.275 43.4L200.835 46.28ZM196.235 37.64C196.235 37.16 196.142 36.68 195.955 36.2C195.768 35.72 195.488 35.2933 195.115 34.92C194.768 34.52 194.315 34.2 193.755 33.96C193.195 33.6933 192.555 33.56 191.835 33.56C191.062 33.56 190.368 33.6933 189.755 33.96C189.168 34.2 188.675 34.52 188.275 34.92C187.875 35.2933 187.568 35.72 187.355 36.2C187.142 36.68 187.035 37.16 187.035 37.64H196.235ZM204.718 30.24H209.238L209.358 32.36C209.598 32.0933 209.878 31.8133 210.198 31.52C210.545 31.2267 210.945 30.96 211.398 30.72C211.878 30.4533 212.412 30.24 212.998 30.08C213.585 29.92 214.252 29.84 214.998 29.84C217.345 29.84 219.132 30.5467 220.358 31.96C221.585 33.3467 222.198 35.2267 222.198 37.6V49H217.478V37.64C217.478 36.44 217.145 35.52 216.478 34.88C215.838 34.2133 214.998 33.88 213.958 33.88C213.318 33.88 212.718 34.0133 212.158 34.28C211.598 34.52 211.118 34.8667 210.718 35.32C210.318 35.7733 209.998 36.3067 209.758 36.92C209.545 37.5067 209.438 38.1467 209.438 38.84V49H204.718V30.24Z" fill="white"/>
</svg>
