<svg width="24" height="24" viewBox="0 0 24 24" fill="none" xmlns="http://www.w3.org/2000/svg">
<path d="M9.47971 12.6868C8.28025 12.6813 7.08024 12.6757 5.88079 12.6712C4.88199 12.6679 3.88318 12.6646 2.88438 12.6607C2.54216 12.6595 2.25679 12.6289 2.09961 12.2833C1.98758 12.0375 2.00263 11.7126 2.21554 11.5253C2.45131 11.3185 2.79576 11.3096 3.10956 11.3118C6.83277 11.3369 10.5554 11.3625 14.2786 11.3876C15.4775 11.396 16.7232 11.3938 17.8062 10.8793C19.4064 10.1185 20.3606 8.19837 20.0006 6.46384C19.6405 4.72932 18.0007 3.34705 16.23 3.28574C14.4592 3.22443 12.728 4.49021 12.2498 6.19631C12.179 6.44824 12.1317 6.71132 12.0046 6.94039C11.8775 7.16947 11.6462 7.36399 11.3842 7.35619C11.1011 7.34783 10.8681 7.0998 10.794 6.82613C10.7198 6.55247 10.7722 6.26152 10.8464 5.98785C11.3201 4.23884 12.7292 2.77129 14.4592 2.23287C16.1893 1.69445 18.1858 2.10691 19.5569 3.29187C20.928 4.47683 21.6253 6.3964 21.3277 8.18388C21.03 9.97135 19.7436 11.5632 18.0559 12.2237C16.8308 12.703 15.4792 12.7047 14.1638 12.7002C12.6026 12.7002 11.0409 12.6941 9.47971 12.6868Z" fill="currentColor"/>
<path d="M8.07068 13.9939C9.2144 13.9877 10.3581 13.9811 11.5018 13.9749C12.7375 13.9682 14.0289 13.9738 15.1281 14.539C16.4434 15.2151 17.2951 16.6965 17.2349 18.1741C17.1747 19.6517 16.2144 21.0524 14.8644 21.6566C12.8295 22.5673 10.318 21.6025 9.49977 19.5157C9.43122 19.3401 9.37492 19.1601 9.33312 18.9762C9.29466 18.8062 9.26735 18.6267 9.31417 18.4589C9.41338 18.0989 9.8877 17.9027 10.2126 18.0866C10.5253 18.2644 10.6184 18.6601 10.7516 18.994C11.1875 20.0881 12.4092 20.8121 13.5775 20.665C14.7457 20.5179 15.7512 19.509 15.8894 18.3397C16.0282 17.1703 15.283 15.9525 14.1772 15.5473C13.5964 15.3343 12.9627 15.3332 12.344 15.3338C9.18542 15.3388 6.02737 15.3438 2.86878 15.3494C2.68986 15.3494 2.50482 15.3488 2.34262 15.2736C1.99594 15.1136 1.88558 14.5947 2.1364 14.3071C2.36547 14.0446 2.75897 14.0234 3.10789 14.0212C4.76159 14.0117 6.41586 14.0028 8.06957 13.9933L8.07068 13.9939Z" fill="currentColor"/>
<path d="M4.6635 9.90782C4.33075 9.90614 3.99744 9.90391 3.6647 9.90224C3.15582 9.90001 2.31141 10.0739 2.08512 9.45523C2.00151 9.22727 2.06004 8.95137 2.23561 8.78361C2.45911 8.57013 2.80245 8.56066 3.11179 8.56345C3.99912 8.57181 4.88589 8.58017 5.77322 8.58853C6.29212 8.59354 6.83333 8.59354 7.29817 8.36224C7.91908 8.05346 8.30032 7.32219 8.19776 6.63663C8.09521 5.95051 7.51666 5.36304 6.83277 5.24934C6.14832 5.13564 5.41148 5.50517 5.09267 6.12106C4.99903 6.30221 4.93717 6.50342 4.80395 6.65837C4.63396 6.85567 4.35026 6.95043 4.09833 6.88521C3.8464 6.82 3.64129 6.59371 3.61119 6.33509C3.5928 6.17736 3.6346 6.01851 3.68811 5.86913C4.03312 4.90433 4.9054 4.14687 5.90866 3.9412C6.91247 3.73498 8.01216 4.08723 8.70942 4.838C9.40669 5.58878 9.67646 6.71187 9.39666 7.6973C9.11686 8.68272 8.29697 9.49648 7.30932 9.76903C6.78205 9.9145 6.22747 9.91339 5.68014 9.91116C5.34126 9.91116 5.00238 9.90949 4.6635 9.90782Z" fill="currentColor"/>
</svg>
