<svg width="45" height="44" viewBox="0 0 45 44" fill="none"
  xmlns="http://www.w3.org/2000/svg">
  <path d="M4.1665 23.8618V11.2576C4.36702 10.7227 4.76019 10.4663 5.32021 10.3825C5.99124 10.2823 6.65153 10.1168 7.32041 10.0001C8.86872 9.73011 10.4056 9.37275 11.9911 9.37633C14.3293 9.38135 16.6675 9.38135 19.0058 9.37204C19.2614 9.37132 19.5293 9.32477 19.7713 9.2417C24.4227 7.64469 29.0712 6.04124 33.719 4.43421C34.4237 4.19072 35.1198 3.92288 35.8201 3.6665C36.0114 3.6665 36.2019 3.6665 36.3931 3.6665C37.0082 3.93148 37.2066 4.40127 37.2002 5.06012C37.1751 7.58454 37.1951 10.1097 37.183 12.6341C37.1815 12.9105 37.2675 13.0136 37.5282 13.0981C39.1123 13.6123 40.1507 14.6794 40.6477 16.2692C40.7214 16.5048 40.7716 16.7469 40.8325 16.9861V18.0603C40.8102 18.1384 40.7816 18.2157 40.7673 18.2952C40.4579 19.9545 39.5241 21.1254 37.9987 21.8287C37.743 21.9461 37.4694 22.0242 37.1894 22.1252C37.1894 22.2813 37.1894 22.4231 37.1894 22.5656C37.1894 25.0821 37.1586 27.6001 37.2059 30.1159C37.2231 31.0476 36.5162 31.6456 35.5509 31.3069C30.9568 29.6927 26.3498 28.1157 21.7472 26.5266C21.3927 26.4041 21.0353 26.2903 20.6465 26.1614C20.6465 26.3533 20.6465 26.4958 20.6465 26.6376C20.6465 29.5244 20.6558 32.4112 20.6429 35.2972C20.6328 37.5939 19.1275 39.5368 16.9146 40.1491C16.6769 40.215 16.4362 40.2716 16.197 40.3325H14.9796C14.9488 40.316 14.9187 40.2909 14.8858 40.2845C12.0355 39.7187 10.4765 37.8173 10.4765 34.9055C10.4765 31.9349 10.4765 28.9636 10.4765 25.9931C10.4765 25.809 10.5244 25.6307 10.2294 25.5806C8.60804 25.3063 6.99313 24.9983 5.37178 24.7248C4.81318 24.631 4.38493 24.4054 4.1665 23.8618ZM35.0209 28.8362V6.27399C34.8713 6.31911 34.7459 6.35205 34.6235 6.3943C30.0408 7.97412 25.459 9.5568 20.8728 11.128C20.6171 11.2154 20.5619 11.3429 20.5619 11.5899C20.5691 15.5517 20.567 19.5141 20.567 23.4758V23.8518C25.3823 25.5125 30.1862 27.169 35.0209 28.8362ZM12.6543 25.741C12.6414 25.8069 12.6285 25.8405 12.6285 25.8742C12.6285 29.0345 12.6228 32.1942 12.6335 35.3545C12.6356 36.0306 12.8813 36.6357 13.3267 37.152C14.1338 38.088 15.4229 38.4261 16.5766 38.0071C17.741 37.5839 18.4923 36.529 18.4959 35.2614C18.5037 32.1612 18.4987 29.0603 18.498 25.9601C18.498 25.8921 18.4887 25.8241 18.483 25.741H12.6543ZM10.5925 11.5928C9.2583 11.8377 7.97282 12.0869 6.68232 12.3018C6.37653 12.3526 6.30778 12.4629 6.30921 12.7565C6.31995 15.952 6.31637 19.1481 6.31637 22.3436C6.31637 22.4618 6.31637 22.5792 6.31637 22.7332C7.74652 22.9881 9.15732 23.2395 10.5932 23.4951L10.5925 11.5928ZM18.3992 23.5632V11.5548H16.6797V23.5625L18.3992 23.5632ZM12.7803 11.5262V23.5546H14.484V11.5434C14.3587 11.5369 14.2534 11.5276 14.1489 11.5269C13.6984 11.5255 13.2472 11.5262 12.7803 11.5262ZM37.2059 19.7934C38.0001 19.5377 38.7198 18.5187 38.6854 17.4817C38.6539 16.5263 38.0094 15.5567 37.2059 15.3103V19.7934Z" fill="currentColor"/>
</svg>
