<svg width="24" height="24" viewBox="0 0 24 24" fill="none"
  xmlns="http://www.w3.org/2000/svg">
  <path d="M21.9276 5.86093C21.7558 5.29927 21.3023 4.86837 20.715 4.70816C20.606 4.67825 20.4955 4.66474 20.3888 4.65171C20.3739 4.64978 20.3594 4.64785 20.3444 4.6464C20.2209 3.63115 19.5087 3.00241 18.4765 3.00193C16.2217 3.00048 13.9673 3 11.7124 3C9.09998 3 6.48707 3.00048 3.87464 3.00145C3.39597 3.00145 2.99932 3.13366 2.66252 3.40581C2.32764 3.67651 2.11774 4.04372 2.00338 4.56196L2 4.57643V20.9883L2.04536 21.0289C2.07286 21.0535 2.09988 21.0819 2.12884 21.1123C2.20025 21.1871 2.28132 21.2721 2.38844 21.3174C2.44779 21.3425 2.50811 21.3555 2.56794 21.3555C2.77929 21.3555 2.93997 21.1944 3.02635 21.1075C3.43553 20.6974 3.8452 20.2877 4.25487 19.878C5.07084 19.0621 5.91479 18.2186 6.74136 17.3853C6.84221 17.2834 6.93341 17.2458 7.07817 17.2458C9.73789 17.2492 12.4425 17.2497 15.0578 17.2497C16.1865 17.2497 17.3156 17.2497 18.4452 17.2501C18.9359 17.2501 19.3287 17.1305 19.6472 16.8839C20.1263 16.5124 20.3589 16.01 20.3575 15.348C20.355 14.2546 20.355 13.1433 20.355 12.0682C20.355 10.998 20.355 9.92723 20.3526 8.85698C20.3526 8.74696 20.3801 8.68037 20.4593 8.60317C20.5389 8.525 20.619 8.44731 20.6991 8.3701C20.9944 8.08396 21.3003 7.78769 21.5744 7.4697C21.9648 7.01612 22.097 6.41488 21.9276 5.86093ZM3.09294 16.4434C3.09294 12.5942 3.09294 8.74503 3.09342 4.89587C3.09342 4.60925 3.18076 4.24397 3.59622 4.13106C3.68742 4.10645 3.79261 4.10307 3.88381 4.10307C4.90774 4.10307 5.93071 4.10307 6.95464 4.10307H9.41073C12.3025 4.10307 15.384 4.10307 18.4688 4.0968C18.7241 4.0968 18.9422 4.18172 19.0836 4.33613C19.2235 4.48909 19.2848 4.70913 19.2611 4.97211C19.2602 4.98514 19.2496 5.00782 19.2399 5.01699C18.699 5.55453 18.1576 6.0911 17.6157 6.6272C17.1858 7.05279 16.7563 7.47838 16.3269 7.90494C15.7913 8.43669 15.2672 8.95783 14.7475 9.48813C14.68 9.55713 14.6177 9.58174 14.5082 9.58174C13.0949 9.57981 11.682 9.57933 10.2692 9.57933C9.12025 9.57933 7.97086 9.57933 6.82195 9.58029C6.73026 9.58029 6.62411 9.58271 6.52229 9.6078C6.26124 9.67294 6.10297 9.89056 6.1189 10.1622C6.13482 10.4267 6.32397 10.6274 6.58985 10.6612C6.66754 10.6708 6.74185 10.6718 6.82436 10.6718H6.85669C8.73953 10.6718 10.6219 10.6718 12.5047 10.6718H13.8799L13.8467 10.8402C13.796 11.0954 13.7468 11.3444 13.6971 11.5934C13.6763 11.6976 13.6546 11.8019 13.6334 11.9066C13.6001 12.0697 13.5653 12.2386 13.533 12.4055C13.491 12.6251 13.5272 12.8128 13.6387 12.9469C13.739 13.0685 13.8891 13.1327 14.0725 13.1327C14.127 13.1327 14.1844 13.1269 14.2433 13.1153L14.5738 13.0507C15.0916 12.9498 15.6267 12.8451 16.1507 12.7279C16.2965 12.695 16.4552 12.6019 16.587 12.4721C17.276 11.7917 17.9723 11.0954 18.6454 10.4218C18.8515 10.2158 19.057 10.0097 19.2631 9.80419V11.233C19.2631 12.6048 19.2631 13.9766 19.2631 15.3485C19.2631 15.8923 18.9958 16.1572 18.4457 16.1572H17.1549C16.0055 16.1577 14.8561 16.1582 13.7072 16.1582C10.95 16.1582 8.84086 16.1567 6.86586 16.1533C6.55848 16.1533 6.32494 16.2508 6.10925 16.4694C5.34202 17.2468 4.55597 18.0314 3.79599 18.7904C3.56147 19.0244 3.32745 19.258 3.09342 19.492L3.09294 16.4434ZM17.8724 9.64688C17.2475 10.2722 16.6014 10.9193 15.9611 11.55C15.8921 11.618 15.7792 11.6769 15.6668 11.7049C15.4139 11.7666 15.1582 11.8163 14.888 11.8689C14.844 11.8776 14.7997 11.8858 14.7553 11.8945L14.7726 11.8096C14.8426 11.4636 14.9087 11.1369 14.9792 10.8074C14.9859 10.7963 15.0071 10.775 15.0192 10.763C16.198 9.58271 17.3778 8.4034 18.5576 7.22457L19.4267 8.09409C19.4267 8.09409 18.7043 8.815 18.4577 9.06157C18.2628 9.25651 18.0674 9.45194 17.8724 9.64688ZM19.4706 6.32224C19.6042 6.18037 19.7427 6.03416 19.8909 5.9005C20.0052 5.79772 20.1442 5.7432 20.2928 5.7432C20.4544 5.7432 20.6089 5.80882 20.7266 5.92752C20.9577 6.16059 20.9655 6.52056 20.7449 6.76472C20.6137 6.90996 20.4713 7.047 20.3333 7.17921C20.3063 7.20527 20.2793 7.23133 20.2528 7.2569L19.3909 6.40571C19.4175 6.37821 19.4435 6.3507 19.4706 6.32224Z" fill="currentColor"/>
  <path d="M6.81374 8.20556H12.747C13.672 8.20556 14.597 8.20556 15.5244 8.20508H15.5606C15.6388 8.20508 15.715 8.20411 15.7937 8.19108C15.9355 8.16792 16.0586 8.09265 16.1401 7.97877C16.2236 7.862 16.2559 7.71627 16.2304 7.56862C16.1787 7.26655 15.9582 7.11311 15.5746 7.11311H6.80843C6.56186 7.11311 6.37657 7.1739 6.25787 7.29309C6.16522 7.3867 6.11648 7.51505 6.11745 7.66416C6.1189 7.86634 6.21154 8.20508 6.81374 8.20556Z" fill="currentColor"/>
  <path d="M6.73895 13.1366C7.08927 13.1375 7.44007 13.1375 7.79039 13.1375H11.435C12.0613 13.137 12.1337 12.7597 12.1356 12.5976C12.1375 12.4509 12.0888 12.3235 11.9957 12.2289C11.8745 12.1063 11.6888 12.0446 11.4422 12.0446H9.68047C8.72167 12.0446 7.76288 12.0446 6.80457 12.0456C6.71965 12.0456 6.62121 12.048 6.52326 12.0726C6.23519 12.1464 6.07257 12.4041 6.12806 12.6999C6.17969 12.9764 6.40311 13.1356 6.73895 13.1366Z" fill="currentColor"/>
</svg>
