<svg width="24" height="24" viewBox="0 0 24 24" fill="none" xmlns="http://www.w3.org/2000/svg">
<path fill-rule="evenodd" clip-rule="evenodd" d="M16.7957 11.5802C17.1509 11.5648 17.5047 11.6712 17.8515 11.9054C18.509 12.3495 19.2098 12.494 19.9649 12.2686C20.1465 12.2144 20.3152 12.118 20.4841 12.0215C20.5707 11.9721 20.6572 11.9226 20.7456 11.8788C20.8848 11.8099 21.0259 11.7448 21.1781 11.6746C21.2519 11.6405 21.3283 11.6053 21.4083 11.5678L21.4078 16.2643C21.0228 16.2929 20.7057 16.4764 20.3871 16.6609C20.2752 16.7256 20.1632 16.7905 20.0479 16.8488C19.488 17.1322 18.916 17.1066 18.3733 16.7763C18.3488 16.7613 18.3243 16.7464 18.2998 16.7314C17.9686 16.5291 17.6394 16.328 17.2409 16.279C16.669 16.208 16.1258 16.2732 15.6305 16.5941L15.6106 16.6071C15.465 16.7015 15.3191 16.7962 15.1649 16.8711C14.8143 17.1581 14.424 17.3984 14.0034 17.5825C14.0323 17.5874 14.0616 17.5915 14.0911 17.595C14.6834 17.665 15.2292 17.559 15.7276 17.225C16.0162 17.032 16.3141 16.8671 16.6737 16.8431C17.1042 16.8144 17.4987 16.8999 17.8583 17.1468C18.1985 17.3806 18.5622 17.5575 18.9849 17.5997C19.5417 17.6556 20.0578 17.5601 20.5332 17.2558C20.5609 17.2381 20.5885 17.2202 20.6162 17.2022C20.8545 17.0473 21.0952 16.8908 21.4094 16.8671C21.4094 17.2142 21.4109 17.5594 21.4123 17.9032C21.4158 18.7153 21.4193 19.5198 21.4031 20.3237C21.3906 20.9562 20.8354 21.4645 20.2024 21.4921C20.1638 21.4942 20.1246 21.4942 20.0855 21.4942C18.2892 21.4942 16.4928 21.4943 14.6964 21.4945C11.1035 21.4947 7.51056 21.4949 3.91786 21.4942C3.23111 21.4937 2.71971 21.0757 2.60282 20.425C2.59134 20.3613 2.58664 20.2956 2.58664 20.2308C2.58612 19.1506 2.58612 18.0699 2.58612 16.9897C2.58612 16.9639 2.58876 16.938 2.5916 16.9103C2.59295 16.8971 2.59434 16.8834 2.59551 16.8692C2.88722 16.8879 3.12257 17.0283 3.34696 17.1828C3.94499 17.5935 4.59729 17.7182 5.29708 17.5449C5.48274 17.4988 5.65935 17.4111 5.83414 17.3242C5.86913 17.3069 5.90404 17.2895 5.93894 17.2725C6.06695 17.2102 6.19197 17.142 6.31696 17.0739C6.42533 17.0148 6.53368 16.9557 6.64394 16.9005C6.81145 16.817 6.88764 16.6813 6.83494 16.5247C6.78432 16.3744 6.62046 16.281 6.45347 16.3515C6.19725 16.46 5.94416 16.5837 5.71037 16.733C5.30543 16.9913 4.87386 17.0935 4.40734 17.0012C4.21374 16.9631 4.01544 16.8947 3.84636 16.794C3.81474 16.7752 3.7832 16.7562 3.75168 16.7373C3.392 16.5213 3.035 16.3069 2.59551 16.2685V11.6236C2.882 11.6445 3.11892 11.7781 3.34018 11.9336C3.93038 12.3469 4.58163 12.4732 5.27046 12.3041C5.56635 12.2316 5.85544 12.0828 6.11271 11.9153C6.45981 11.6895 6.82178 11.5799 7.20048 11.5941C7.25801 11.3974 7.32731 11.2057 7.40756 11.0198C7.38655 11.0177 7.36545 11.0158 7.34425 11.0141C6.73109 10.9661 6.19047 11.142 5.6942 11.4916C5.45624 11.6591 5.1901 11.7489 4.89683 11.7791C4.38595 11.8313 3.95438 11.6534 3.54631 11.3721C3.1878 11.1247 2.78546 11.0115 2.35077 11.0099C2.11281 11.0094 2.00114 11.1117 2.00114 11.3512C2.00103 11.6644 2.00091 11.9776 2.00079 12.2908C1.99975 14.9525 1.99872 17.6139 2.00479 20.2752C2.00636 20.8012 2.23023 21.2417 2.61587 21.6012C2.89662 21.8632 3.2426 21.9832 3.60162 22.0797H20.3986C20.4317 22.0703 20.465 22.0615 20.4984 22.0527C20.5706 22.0336 20.6429 22.0144 20.7133 21.9895C21.377 21.7525 21.7935 21.2912 21.9599 20.605C21.9671 20.5753 21.9769 20.5466 21.9868 20.5179C21.9913 20.5047 21.9958 20.4915 22.0001 20.4782V11.1816C21.8869 11.0329 21.7371 11.0016 21.5555 11.0115C21.1688 11.0324 20.8187 11.1477 20.4878 11.3455C20.4466 11.3701 20.4053 11.3955 20.364 11.4209C20.1767 11.5359 19.987 11.6525 19.7823 11.7123C19.2912 11.8564 18.8117 11.7995 18.3556 11.5302C18.0508 11.3502 17.732 11.1628 17.3944 11.0757C17.1193 11.0046 16.8503 10.9842 16.589 11.0114C16.6689 11.1955 16.7381 11.3854 16.7957 11.5802ZM8.83909 16.8742C8.79097 16.8514 8.74321 16.8261 8.69582 16.7982C8.47769 16.6693 8.25851 16.542 8.03621 16.4214C7.96315 16.3818 7.87966 16.3562 7.79773 16.3384C7.62709 16.3019 7.48463 16.3818 7.43923 16.5289C7.39331 16.6776 7.46793 16.8133 7.62396 16.8911C7.66041 16.9092 7.69693 16.9272 7.73346 16.9452C7.9296 17.042 8.1259 17.1388 8.31331 17.2501C8.87683 17.5846 9.43896 17.6974 9.9997 17.5838C9.57957 17.4002 9.18955 17.1605 8.83909 16.8742Z" fill="currentColor"/>
<path fill-rule="evenodd" clip-rule="evenodd" d="M12.0001 17.5C14.4854 17.5 16.5001 15.4853 16.5001 13C16.5001 10.5147 14.4854 8.5 12.0001 8.5C9.51484 8.5 7.50012 10.5147 7.50012 13C7.50012 15.4853 9.51484 17.5 12.0001 17.5ZM12.0001 18C14.7615 18 17.0001 15.7614 17.0001 13C17.0001 10.2386 14.7615 8 12.0001 8C9.2387 8 7.00012 10.2386 7.00012 13C7.00012 15.7614 9.2387 18 12.0001 18Z" fill="currentColor"/>
<path fill-rule="evenodd" clip-rule="evenodd" d="M14.1769 11.3232C14.2745 11.4209 14.2745 11.5791 14.1769 11.6768L11.4269 14.4268C11.3293 14.5244 11.171 14.5244 11.0733 14.4268L9.82335 13.1768C9.72571 13.0791 9.72571 12.9209 9.82335 12.8232C9.92098 12.7256 10.0793 12.7256 10.1769 12.8232L11.2501 13.8964L13.8233 11.3232C13.921 11.2256 14.0793 11.2256 14.1769 11.3232Z" fill="currentColor"/>
</svg>
