<svg width="512" height="146" viewBox="0 0 512 146" fill="none"
  xmlns="http://www.w3.org/2000/svg">
  <g clip-path="url(#clip0_66_432)">
    <path d="M72.7786 76.1956C45.9959 89.3464 21.1055 113.675 0 137.373C3.3117 138.373 18.3458 125.248 30.0682 120.119C124.294 78.931 226.563 173.932 325.835 137.505C359.031 125.327 388.021 102.655 411.019 75.4066C282.31 139.977 189.897 18.6741 72.7786 76.1956Z" fill="currentColor"/>
    <path d="M512 11.8093C411.992 61.9664 340.212 -32.2984 249.219 12.4143C228.402 22.6456 209.084 41.5301 192.683 59.9675C195.285 60.704 206.929 50.5516 216.049 46.5537C289.248 14.5447 368.703 88.3732 445.845 60.0464C471.629 50.5779 494.154 32.9558 512 11.783" fill="currentColor"/>
  </g>
</svg>
