<svg width="24" height="24" viewBox="0 0 24 24" fill="none" xmlns="http://www.w3.org/2000/svg">
<path d="M20.7497 21.9996H3.25025C3.22051 21.9882 3.19129 21.9725 3.1605 21.9652C2.45812 21.7956 2.00205 21.2358 2.00152 20.5174C1.99944 15.6163 1.99787 10.7156 2.00831 5.8145C2.00831 5.57137 2.08032 5.30529 2.1946 5.09034C2.48369 4.54669 2.97056 4.3187 3.58214 4.31974C6.04203 4.32391 8.50244 4.3213 10.9623 4.3213C11.0448 4.3213 11.1277 4.3213 11.2071 4.3213C11.2243 4.25244 11.2373 4.20861 11.2462 4.16426C11.4831 2.9048 12.5236 2.01212 13.7687 2.00012C15.0347 1.98812 16.1075 2.85785 16.3502 4.11418C16.3851 4.29417 16.4519 4.32496 16.6121 4.32443C17.8943 4.31922 19.1764 4.3187 20.4585 4.32287C21.2261 4.32548 21.7683 4.75017 21.9656 5.4879C21.9718 5.51137 21.988 5.53224 22 5.55468V20.7501C21.8669 21.2437 21.5888 21.6224 21.1223 21.8483C21.0017 21.9068 20.8744 21.9496 20.7497 21.9996ZM2.58701 14.842C2.60476 14.8504 2.62302 14.8587 2.64076 14.8676C2.68616 14.8123 2.72791 14.7528 2.77852 14.7027C4.33826 13.1417 5.89905 11.5812 7.45931 10.0207C7.74318 9.73687 7.83554 9.73635 8.11629 10.017C9.99434 11.8953 11.8724 13.773 13.7504 15.6512C15.6285 17.5295 17.5066 19.4087 19.3872 21.2843C19.4462 21.3433 19.5338 21.4049 19.6106 21.408C19.9357 21.421 20.2618 21.4226 20.5864 21.4085C20.8739 21.396 21.1014 21.2604 21.2778 20.9932C21.2141 20.9405 21.1546 20.8988 21.104 20.8487C19.6486 19.3946 18.1943 17.9401 16.74 16.4855C16.2427 15.9883 15.7454 15.4916 15.2491 14.9938C15.0446 14.7888 15.0451 14.6589 15.247 14.4465C15.2784 14.4137 15.3102 14.3808 15.342 14.3485C17.3208 12.3048 19.299 10.2607 21.2809 8.2202C21.3801 8.11794 21.4192 8.01777 21.4166 7.87795C21.4088 7.40943 21.4135 6.9404 21.4135 6.47188V5.8985C21.0858 6.21415 20.7638 6.51466 20.4533 6.82614C19.9477 7.33326 19.4504 7.84821 18.9473 8.35794C18.7772 8.53011 18.5857 8.52959 18.4651 8.36055C18.353 8.20298 18.4083 8.07151 18.5325 7.94577C19.1268 7.34317 19.7181 6.73796 20.3103 6.1338C20.6057 5.83276 20.901 5.53172 21.2032 5.2239C21.0132 5.00582 20.7868 4.91451 20.5211 4.90982C20.3192 4.90669 20.1178 4.90825 19.9158 4.90825C18.8028 4.90825 17.6897 4.90825 16.5761 4.90825C16.4822 4.90825 16.3888 4.88373 16.3711 5.03921C16.239 6.19536 15.8263 7.25552 15.2418 8.25307C14.9611 8.73202 14.4721 9.51983 13.8428 9.5527C13.5198 9.5694 13.2359 9.34714 13.0131 9.11288C12.4913 8.56454 12.1171 7.88995 11.8385 7.18613C11.6866 6.80266 11.5619 6.40875 11.4497 6.01224C11.4215 5.91206 11.2081 4.92495 11.1554 4.92495H6.04881C8.64907 7.52526 11.2431 10.1193 13.8621 12.7389C13.8929 12.6993 13.9279 12.6429 13.9733 12.597C15.0482 11.4993 16.1242 10.4031 17.2002 9.30645C17.255 9.25062 17.3072 9.1901 17.3704 9.14627C17.494 9.05967 17.6187 9.07845 17.7252 9.17914C17.8311 9.27932 17.8624 9.4014 17.7816 9.53079C17.7445 9.59079 17.6913 9.6414 17.6417 9.69253C16.4801 10.8784 15.318 12.0633 14.1554 13.2486C13.8825 13.5267 13.7823 13.5283 13.512 13.258C12.5774 12.3236 11.6433 11.3892 10.7087 10.4548C8.90424 8.65011 7.10029 6.84544 5.29268 5.04442C5.22641 4.97816 5.12048 4.91608 5.03177 4.91399C4.52455 4.90147 4.0163 4.90408 3.50856 4.91086C3.37862 4.91243 3.24921 4.94738 3.08014 4.97295C3.16415 5.0606 3.21112 5.11277 3.26069 5.16234C4.29599 6.19849 5.33182 7.23413 6.36765 8.26977C6.64265 8.54472 6.64369 8.64228 6.37286 8.91306C5.15336 10.1329 3.9328 11.3527 2.71486 12.574C2.66268 12.6262 2.59275 12.6967 2.59223 12.7598C2.58336 13.4542 2.58649 14.1486 2.58649 14.8431L2.58701 14.842ZM18.6102 21.4137C14.994 17.7981 11.3761 14.1815 7.75362 10.5596C7.74527 10.5675 7.71604 10.5925 7.68891 10.6196C6.02272 12.2855 4.356 13.9504 2.69503 15.621C2.63189 15.6841 2.59119 15.7994 2.59067 15.8907C2.5844 17.4006 2.58597 18.9105 2.58649 20.4204C2.58649 21.0616 2.93507 21.4132 3.57222 21.4132C8.53114 21.4132 13.4906 21.4132 18.4495 21.4132L18.6102 21.4137ZM15.8503 14.6662C17.7236 16.5397 19.5777 18.3934 21.403 20.2195V8.93236C19.5229 10.8737 17.6688 12.788 15.8503 14.6662ZM11.7889 4.63695C11.8025 4.77938 11.8087 4.92286 11.8306 5.06373C12.0415 6.41919 12.5993 7.88212 13.5981 8.8541C13.6539 8.90836 13.7176 8.96419 13.7953 8.96836C13.8783 8.97254 13.9513 8.91671 14.0134 8.86141C14.5598 8.37411 14.9381 7.67134 15.2293 7.00822C15.5351 6.31171 15.7287 5.56929 15.8064 4.81278C15.9249 3.66184 15.0561 2.64394 13.9232 2.58916C12.7397 2.53177 11.7873 3.44845 11.7889 4.63695ZM2.62876 5.41537C2.54266 6.14371 2.59797 6.85692 2.58858 7.56647C2.57866 8.27603 2.58649 8.98558 2.58649 9.69514V11.817C3.67502 10.7287 4.75155 9.65235 5.80773 8.59637C4.76877 7.55708 3.71729 6.50475 2.62876 5.41537Z" fill="currentColor"/>
<path d="M10.4869 15.86C10.4546 16.8247 10.1691 17.7247 9.7788 18.5965C9.52519 19.162 9.22879 19.7041 8.82072 20.1747C8.68557 20.3302 8.52746 20.4711 8.36152 20.5931C8.05468 20.819 7.72384 20.8217 7.42119 20.5931C7.2208 20.4418 7.02094 20.2712 6.87535 20.0698C5.98616 18.8391 5.41894 17.4727 5.301 15.9529C5.15385 14.0595 7.12635 12.6691 8.88073 13.4032C9.11556 13.5012 9.1907 13.6348 9.11347 13.8158C9.03467 14.0005 8.89743 14.0397 8.65531 13.9463C7.46293 13.4882 6.2069 14.144 5.92667 15.3737C5.82857 15.8031 5.88963 16.2289 5.98512 16.6494C6.23977 17.77 6.66454 18.8172 7.36013 19.7422C7.4144 19.8147 7.47754 19.8815 7.54173 19.9457C7.83499 20.2404 7.96023 20.2446 8.24828 19.9384C8.81029 19.3394 9.16043 18.6137 9.45161 17.8587C9.69583 17.2264 9.87586 16.5758 9.89882 15.8908C9.90978 15.5663 9.8529 15.2574 9.72087 14.961C9.6259 14.7477 9.66974 14.5958 9.84037 14.5191C10.0157 14.4404 10.1519 14.5082 10.2531 14.7231C10.418 15.0732 10.4906 15.4311 10.4869 15.86Z" fill="currentColor"/>
<path d="M6.5273 15.8616C6.52938 15.1056 7.13731 14.4983 7.89187 14.4988C8.64435 14.4988 9.25801 15.1108 9.26062 15.8626C9.26323 16.6212 8.64174 17.2394 7.88144 17.2358C7.12948 17.2321 6.52573 16.6186 6.5273 15.8616ZM7.11331 15.86C7.1107 16.2972 7.45145 16.6462 7.88405 16.6494C8.31455 16.6525 8.66992 16.304 8.67461 15.8741C8.67931 15.4452 8.32708 15.0873 7.89813 15.0847C7.46293 15.0821 7.11539 15.4249 7.11331 15.86Z" fill="currentColor"/>
<path d="M15.1682 4.65373C15.1703 5.41233 14.5686 6.02327 13.8151 6.02745C13.0533 6.03162 12.4328 5.41546 12.4349 4.65634C12.437 3.90765 13.0548 3.29044 13.8031 3.28992C14.5561 3.2894 15.1661 3.89878 15.1682 4.65373ZM14.5822 4.66416C14.5838 4.22852 14.2399 3.87791 13.8083 3.87583C13.3804 3.87374 13.0235 4.22747 13.0209 4.65582C13.0183 5.08624 13.3684 5.43946 13.8 5.44102C14.2357 5.44259 14.5806 5.10033 14.5822 4.66416Z" fill="currentColor"/>
</svg>
