<svg width="48" height="48" viewBox="0 0 48 48" fill="none"
  xmlns="http://www.w3.org/2000/svg">
  <path fill-rule="evenodd" clip-rule="evenodd" d="M8 20.3636C8 11.3262 15.3262 4 24.3636 4C33.401 4 40.7273 11.3262 40.7273 20.3636C40.7273 26.0347 37.5566 30.1191 34.3115 33.499C33.5285 34.3145 32.7209 35.1087 31.9402 35.8765L31.8389 35.9762C31.0196 36.782 30.2316 37.5592 29.4894 38.3414C27.9973 39.9139 26.7789 41.4168 25.9899 42.9949C25.6819 43.6109 25.0523 44 24.3636 44C23.675 44 23.0454 43.6109 22.7374 42.9949C21.9483 41.4168 20.73 39.9139 19.2379 38.3414C18.4957 37.5592 17.7077 36.782 16.8884 35.9762L16.787 35.8765C16.0063 35.1087 15.1988 34.3145 14.4157 33.499C11.1707 30.1191 8 26.0347 8 20.3636Z" fill="currentColor"/>
</svg>
