<svg width="24" height="24" viewBox="0 0 24 24" fill="none" xmlns="http://www.w3.org/2000/svg">
<path fill-rule="evenodd" clip-rule="evenodd" d="M5 2C3.34315 2 2 3.34315 2 5V19C2 20.6569 3.34315 22 5 22H19C20.6569 22 22 20.6569 22 19V5C22 3.34315 20.6569 2 19 2H5ZM8 7V18H10.2464V14.4336H12.1349C12.9511 14.4336 13.6463 14.2778 14.2205 13.9663C14.7981 13.6548 15.2391 13.2197 15.5435 12.6611C15.8478 12.1025 16 11.458 16 10.7275C16 9.99707 15.8495 9.35254 15.5486 8.79394C15.2512 8.23177 14.8188 7.79313 14.2516 7.47803C13.6844 7.15934 12.9978 7 12.192 7H8ZM10.2464 12.5698H11.7717C12.2041 12.5698 12.5603 12.4928 12.8405 12.3389C13.1241 12.1813 13.3351 11.9647 13.4734 11.689C13.6152 11.4097 13.6861 11.0892 13.6861 10.7275C13.6861 10.3623 13.6152 10.0436 13.4734 9.77148C13.3351 9.49577 13.1241 9.28271 12.8405 9.13232C12.5569 8.97835 12.1971 8.90137 11.7613 8.90137H10.2464V12.5698Z" fill="currentColor"/>
</svg>
