<svg width="44" height="44" viewBox="0 0 44 44" fill="none" xmlns="http://www.w3.org/2000/svg">
<path d="M33.8658 13.5126C33.826 13.0501 33.8196 12.5813 33.7425 12.1252C33.1567 8.6248 31.0963 6.24707 27.9414 4.80193C25.2271 3.55975 22.3407 3.43643 19.4478 3.95411C15.1188 4.72742 12.3519 7.31069 11.093 11.4997C10.7372 12.6853 11.4373 13.9262 12.5972 14.2987C13.7919 14.6815 15.0456 14.0675 15.4837 12.8793C15.5607 12.6699 15.6172 12.4515 15.6918 12.2409C16.6115 9.59336 18.3341 7.81552 21.1961 7.4263C24.1737 7.02166 26.6093 8.02234 28.3101 10.5465C29.7668 12.7084 29.6075 15.3726 27.9414 17.3624C27.4995 17.8891 27.0114 18.3811 26.5129 18.8564C25.3864 19.929 24.2238 20.9643 23.105 22.0434C20.8326 24.2361 19.9116 26.9735 19.9385 30.0732C19.9462 30.9172 20.4922 31.4426 21.3361 31.458C21.7857 31.4657 22.2353 31.4618 22.6849 31.4592C23.7447 31.4554 24.2405 31.0315 24.265 29.9666C24.3215 27.5208 25.2412 25.5297 27.0974 23.8983C28.6119 22.5662 30.0545 21.1429 31.4341 19.6721C33.0398 17.9597 33.8619 15.8852 33.8658 13.5126ZM22.2276 40.3317C23.6188 40.3266 24.7364 39.209 24.7364 37.8217C24.7364 36.4382 23.6137 35.3091 22.2315 35.3001C20.8287 35.2924 19.6945 36.4318 19.7047 37.841C19.715 39.2373 20.8287 40.3369 22.2276 40.3317Z" fill="currentColor"/>
<path d="M33.8658 13.5126C33.8619 15.8852 33.0398 17.9597 31.4341 19.6721C30.0545 21.1429 28.6119 22.5662 27.0974 23.8983C25.2412 25.5297 24.3215 27.5208 24.265 29.9666C24.2405 31.0315 23.7447 31.4554 22.6849 31.4592C22.2353 31.4618 21.7857 31.4657 21.3361 31.458C20.4922 31.4426 19.9462 30.9172 19.9385 30.0732C19.9116 26.9735 20.8326 24.2361 23.105 22.0434C24.2238 20.9643 25.3864 19.929 26.5129 18.8564C27.0114 18.3811 27.4995 17.8891 27.9414 17.3624C29.6075 15.3726 29.7668 12.7084 28.3101 10.5465C26.6093 8.02234 24.1737 7.02166 21.1961 7.4263C18.3341 7.81552 16.6115 9.59336 15.6918 12.2409C15.6172 12.4515 15.5607 12.6699 15.4837 12.8793C15.0456 14.0675 13.7919 14.6815 12.5972 14.2987C11.4373 13.9262 10.7372 12.6853 11.093 11.4997C12.3519 7.31069 15.1188 4.72742 19.4478 3.95411C22.3407 3.43643 25.2271 3.55975 27.9414 4.80193C31.0963 6.24707 33.1567 8.6248 33.7425 12.1252C33.8196 12.5813 33.826 13.0501 33.8658 13.5126Z" fill="currentColor"/>
<path d="M22.2276 40.3317C20.8287 40.3369 19.715 39.2399 19.7047 37.8435C19.6945 36.4344 20.8287 35.2937 22.2315 35.3027C23.6137 35.3104 24.7364 36.4408 24.7364 37.8243C24.7364 39.2103 23.6188 40.3292 22.2276 40.3343V40.3317Z" fill="currentColor"/>
</svg>
