<svg width="24" height="24" viewBox="0 0 24 24" fill="none" xmlns="http://www.w3.org/2000/svg">
<path d="M12.379 21.9986C9.33451 21.9986 6.29005 21.9975 3.24559 22C2.91146 22 2.58931 21.9524 2.2853 21.8154C1.88225 21.634 1.56373 21.3542 1.33119 20.9825C1.07579 20.5742 0.965503 20.1295 1.0094 19.6519C1.03842 19.337 1.14109 19.0429 1.30108 18.7688C1.56554 18.3159 1.83001 17.8629 2.09521 17.4107C2.35895 16.961 2.62378 16.5116 2.88752 16.0618C3.14836 15.6171 3.40775 15.1713 3.66823 14.7266C3.95301 14.2407 4.23925 13.7559 4.5233 13.2697C4.85706 12.6987 5.18864 12.1262 5.52313 11.5552C5.87829 10.9484 6.23636 10.343 6.59188 9.73584C6.85381 9.28861 7.11284 8.83923 7.37477 8.39164C7.65592 7.91078 7.93962 7.43099 8.22114 6.95013C8.48307 6.50254 8.74354 6.05423 9.00547 5.60664C9.2148 5.24921 9.42594 4.89286 9.63526 4.53543C9.89719 4.08784 10.1635 3.64276 10.4178 3.19123C10.6637 2.75474 10.9942 2.40804 11.4557 2.19445C11.7931 2.03809 12.1512 1.98013 12.5226 2.00589C13.3139 2.06135 13.8947 2.44382 14.2901 3.11395C14.5731 3.59374 14.8571 4.07318 15.1387 4.55404C15.4742 5.12757 15.8069 5.70289 16.1425 6.27677C16.4766 6.8478 16.8129 7.41739 17.1474 7.98842C17.4097 8.43601 17.6701 8.88431 17.9324 9.3319C18.2158 9.81527 18.5006 10.2976 18.7835 10.7809C19.0455 11.2285 19.3048 11.6775 19.5668 12.1251C19.7761 12.4826 19.988 12.8386 20.1973 13.1956C20.4578 13.6403 20.7168 14.0865 20.9769 14.5312C21.2599 15.0146 21.5439 15.4976 21.8269 15.981C22.0888 16.4286 22.3493 16.8769 22.6112 17.3245C22.8206 17.6819 23.035 18.0365 23.2396 18.3964C23.3774 18.6393 23.5251 18.8812 23.627 19.1392C23.7674 19.4937 23.7928 19.8662 23.7159 20.2458C23.6049 20.7925 23.3277 21.2343 22.8826 21.5717C22.4857 21.8726 22.0311 22.0007 21.5312 21.9996C19.6205 21.9961 17.7097 21.9982 15.7989 21.9982C14.6591 21.9982 13.5192 21.9982 12.3797 21.9982L12.379 21.9986ZM12.3724 21.5052C15.3926 21.5052 18.4128 21.5052 21.4329 21.5052C21.5145 21.5052 21.5962 21.5045 21.6778 21.5016C22.001 21.4909 22.2927 21.3857 22.551 21.1978C22.9098 20.9367 23.1315 20.5903 23.2214 20.1553C23.2907 19.82 23.2526 19.5002 23.1072 19.1985C22.9766 18.9284 22.8177 18.6715 22.6671 18.4114C22.3537 17.8697 22.0388 17.3291 21.7224 16.7892C21.4409 16.3084 21.1558 15.8296 20.8742 15.3488C20.5387 14.7752 20.206 14.1999 19.8708 13.626C19.5853 13.1373 19.298 12.6493 19.0117 12.1609C18.7527 11.7187 18.4948 11.2757 18.2354 10.8335C17.9535 10.353 17.6698 9.87323 17.3886 9.39237C17.0726 8.85211 16.7592 8.31078 16.4432 7.77053C16.1603 7.28716 15.8751 6.80486 15.5921 6.32186C15.3103 5.84099 15.0302 5.35941 14.749 4.87819C14.4675 4.39733 14.1806 3.91933 13.9045 3.43524C13.6436 2.97799 13.2852 2.65277 12.7526 2.53506C12.3953 2.45599 12.0488 2.48819 11.7147 2.62343C11.4571 2.7279 11.2282 2.88712 11.0719 3.11538C10.8767 3.40018 10.704 3.70001 10.5277 3.99697C10.2647 4.44026 10.0078 4.88749 9.747 5.33222C9.53767 5.68965 9.32581 6.04564 9.11685 6.40307C8.85492 6.85066 8.59517 7.29932 8.33324 7.74691C8.05027 8.23028 7.76585 8.71293 7.48251 9.1963C7.22059 9.64389 6.95975 10.0918 6.69782 10.5394C6.41485 11.0228 6.13115 11.5058 5.84818 11.9892C5.58625 12.4368 5.32469 12.8844 5.06276 13.3316C4.80083 13.7788 4.53745 14.2257 4.27589 14.6733C3.99437 15.1541 3.7143 15.6361 3.43314 16.1169C3.15017 16.6007 2.86648 17.0837 2.58315 17.567C2.3194 18.0171 2.0582 18.4683 1.79119 18.9163C1.64427 19.1631 1.53543 19.4222 1.50859 19.7084C1.47267 20.0894 1.57316 20.4401 1.78212 20.7592C1.96678 21.0415 2.21964 21.2508 2.53272 21.3814C2.7747 21.4823 3.03154 21.507 3.29492 21.507C6.32125 21.5041 9.34721 21.5052 12.3735 21.5052H12.3724Z" fill="currentColor"/>
<path d="M12.3688 20.7026C9.34576 20.7026 6.32234 20.7023 3.29928 20.7034C3.10374 20.7034 2.91545 20.6905 2.74095 20.5881C2.43295 20.4078 2.21492 19.9649 2.3535 19.6354C2.43948 19.4311 2.54832 19.235 2.65897 19.0422C2.90167 18.6182 3.15199 18.1981 3.39904 17.7767C3.68092 17.2958 3.9628 16.8153 4.24432 16.3344C4.50625 15.8868 4.76745 15.4389 5.02938 14.9917C5.2583 14.601 5.48794 14.2106 5.71685 13.8199C5.97552 13.3784 6.23418 12.9365 6.49248 12.4943C6.7555 12.0439 7.01706 11.5931 7.28044 11.143C7.54382 10.6929 7.80865 10.2435 8.07276 9.79376C8.35936 9.30575 8.64668 8.81773 8.93219 8.32899C9.2674 7.7551 9.59971 7.17979 9.93528 6.60626C10.289 6.00196 10.646 5.39945 11.0004 4.79515C11.2068 4.44309 11.4085 4.08816 11.6179 3.73789C11.7858 3.45632 12.0303 3.29853 12.3721 3.29639C12.7175 3.2946 12.9674 3.44987 13.1372 3.73539C13.48 4.31178 13.8174 4.89103 14.1559 5.46993C14.4915 6.04346 14.8245 6.61842 15.1604 7.19195C15.5145 7.79625 15.8711 8.39912 16.2252 9.00306C16.486 9.44779 16.7443 9.89394 17.0044 10.339C17.2675 10.7891 17.5319 11.2389 17.7953 11.689C18.0779 12.1727 18.3598 12.6568 18.6424 13.1405C18.9011 13.5831 19.1605 14.0249 19.4198 14.4672C19.685 14.9198 19.9502 15.3724 20.2154 15.8246C20.4988 16.308 20.7825 16.791 21.0658 17.2743C21.3263 17.7191 21.5864 18.1645 21.8465 18.6096C21.9996 18.8722 22.1465 19.1384 22.3065 19.3967C22.5985 19.8672 22.383 20.4114 21.9426 20.6243C21.8581 20.6651 21.7591 20.6808 21.6647 20.6955C21.5878 20.7073 21.508 20.7019 21.4293 20.7019C18.4091 20.7019 15.389 20.7019 12.3685 20.7019L12.3688 20.7026ZM16.2386 20.2128C16.5985 20.2128 16.958 20.2128 17.3179 20.2128C18.7237 20.2128 20.1294 20.2082 21.5352 20.2168C21.8109 20.2186 22.0493 19.9409 21.8791 19.6511C21.573 19.1295 21.2693 18.606 20.9635 18.0844C20.6076 17.4776 20.2495 16.8725 19.8944 16.2654C19.5588 15.6919 19.2265 15.1165 18.8909 14.543C18.629 14.0954 18.3627 13.6507 18.1008 13.2031C17.693 12.5061 17.2889 11.807 16.8807 11.1097C16.5452 10.5362 16.2052 9.96514 15.8697 9.39161C15.5337 8.81808 15.2021 8.24241 14.8662 7.66888C14.511 7.06172 14.1533 6.45634 13.7975 5.8499C13.4339 5.23057 13.073 4.60981 12.708 3.9912C12.5451 3.71535 12.2154 3.71285 12.051 3.98619C11.8809 4.26992 11.7176 4.55758 11.5504 4.84309C11.1332 5.55544 10.716 6.26779 10.2984 6.97978C9.81592 7.80233 9.3327 8.62416 8.8502 9.44671C8.45223 10.1254 8.05426 10.8042 7.65701 11.4832C7.22494 12.2213 6.79286 12.9598 6.36514 13.7004C6.34338 13.738 6.34374 13.8103 6.36659 13.8468C6.45185 13.9831 6.54508 14.1155 6.64485 14.2421C6.99384 14.6861 7.39508 15.089 7.70671 15.5627C7.72521 15.591 7.7858 15.6124 7.82099 15.606C8.04047 15.5659 8.2585 15.519 8.47617 15.4707C8.76168 15.4074 9.04574 15.3398 9.33125 15.2765C9.60769 15.2153 9.88521 15.157 10.162 15.0976C10.2277 15.0836 10.2502 15.05 10.252 14.9781C10.2545 14.87 10.2694 14.7595 10.3002 14.6561C10.3488 14.494 10.4138 14.3369 10.4744 14.1784C10.5701 13.9287 10.6699 13.68 10.7653 13.4299C10.9025 13.0718 11.0418 12.7147 11.172 12.3541C11.2594 12.1122 11.353 11.8764 11.5224 11.6761C11.5409 11.6542 11.5435 11.5931 11.5261 11.5723C11.4064 11.4306 11.3164 11.2764 11.2678 11.0975C11.1988 10.8446 11.2065 10.5934 11.3095 10.3537C11.4571 10.0095 11.7122 9.77516 12.0837 9.67355C12.392 9.58947 12.6913 9.61451 12.967 9.77301C13.4379 10.0439 13.6418 10.4782 13.5606 11.0099C13.5515 11.0689 13.5725 11.0854 13.6237 11.0893C13.8225 11.1054 14.0209 11.1279 14.2201 11.1372C14.6155 11.1559 15.012 11.1587 15.3999 11.2489C15.6088 11.2975 15.821 11.3548 15.9803 11.5025C16.2259 11.7305 16.4603 11.9709 16.6921 12.2131C16.7407 12.2636 16.7704 12.3412 16.786 12.411C16.8354 12.6317 16.7683 12.8178 16.6036 12.9781C16.1526 13.4178 15.7046 13.8607 15.2602 14.3069C15.2141 14.353 15.1887 14.4278 15.1735 14.4936C15.1441 14.6239 15.1296 14.7573 15.1071 14.889C15.0929 14.9723 15.057 15.0511 15.1031 15.1391C15.2399 15.4003 15.3701 15.6647 15.5029 15.9276C15.6937 16.3051 15.8845 16.6826 16.075 17.0604C16.2694 17.4457 16.4643 17.8311 16.6576 18.2171C16.7313 18.3642 16.7933 18.5148 16.8027 18.6826C16.8187 18.9606 16.7276 19.1935 16.4824 19.3377C16.231 19.4855 15.9723 19.469 15.7213 19.3144C15.5403 19.2028 15.4467 19.03 15.3552 18.8504C15.0563 18.264 14.7534 17.6794 14.4508 17.0947C14.4389 17.0715 14.4156 17.0539 14.3975 17.0339C14.3783 17.0579 14.3514 17.079 14.3413 17.1062C14.2948 17.2318 14.2546 17.3591 14.2096 17.4854C14.1087 17.7684 14.0071 18.0511 13.9048 18.3334C13.8167 18.5767 13.7322 18.821 13.6382 19.0618C13.4865 19.4497 13.0367 19.6336 12.6275 19.4042C12.314 19.2286 12.1784 18.8651 12.3003 18.5273C12.3518 18.3849 12.3873 18.2368 12.4309 18.0915C12.4925 17.8865 12.5542 17.6815 12.6166 17.4765C12.6808 17.2661 12.7461 17.0557 12.81 16.8454C12.872 16.6403 12.9311 16.4346 12.9939 16.2296C13.0755 15.9623 13.1597 15.6958 13.2413 15.4282C13.2642 15.3537 13.2602 15.284 13.2039 15.2189C13.1553 15.1627 13.1245 15.0915 13.0748 15.0364C13.0476 15.0063 12.9932 14.9727 12.9591 14.9799C12.5691 15.0593 12.1809 15.1462 11.7924 15.2314C11.6839 15.2554 11.6019 15.2958 11.5489 15.4124C11.455 15.6189 11.2808 15.6979 11.086 15.6482C11.0233 15.6321 10.9645 15.597 10.9075 15.5652C10.8089 15.5097 10.7116 15.4672 10.5912 15.4965C10.3104 15.5652 10.0285 15.6292 9.74627 15.6919C9.30803 15.7892 8.8687 15.8829 8.43046 15.9792C8.31582 16.0042 8.20191 16.0343 8.08727 16.0593C8.02197 16.0736 8.01362 16.1083 8.02161 16.1699C8.04591 16.3613 8.06405 16.5538 8.07929 16.7462C8.08799 16.8532 8.07784 16.9616 8.09126 17.0679C8.10722 17.1942 8.13044 17.3212 8.16708 17.4432C8.23311 17.6633 8.38003 17.8371 8.54038 17.9946C8.76603 18.2157 8.92892 18.4668 9.01853 18.7695C9.05408 18.8901 9.10632 19.0146 9.18323 19.1126C9.31928 19.2854 9.50357 19.4114 9.7031 19.5055C9.98172 19.6364 10.2476 19.7828 10.4838 19.9813C10.6732 20.1406 10.8825 20.22 11.1488 20.2178C12.8448 20.205 14.5408 20.2114 16.2368 20.2114L16.2386 20.2128ZM9.9204 20.2007C9.92222 20.1935 9.92367 20.1867 9.92548 20.1796C9.88558 20.1552 9.8464 20.1298 9.80577 20.1069C9.57794 19.9803 9.34177 19.8665 9.12446 19.7248C8.86507 19.5559 8.663 19.3273 8.57811 19.025C8.5012 18.7513 8.37024 18.5184 8.16382 18.318C7.77528 17.9412 7.57974 17.4808 7.58772 16.9391C7.58989 16.7992 7.58881 16.6582 7.57502 16.5191C7.5645 16.4135 7.55434 16.2979 7.50464 16.2081C7.3871 15.9953 7.25976 15.7845 7.11139 15.5913C6.87304 15.2811 6.61365 14.9863 6.36478 14.684C6.25558 14.5512 6.14965 14.4153 6.03719 14.2743C6.00889 14.3147 5.98459 14.3452 5.965 14.3781C5.72157 14.7949 5.48032 15.2128 5.23617 15.6292C4.82767 16.3258 4.41737 17.0214 4.00888 17.718C3.63195 18.3606 3.25574 19.0035 2.88244 19.6482C2.83346 19.7327 2.79428 19.8246 2.82911 19.9295C2.89332 20.1212 3.01086 20.2114 3.21692 20.2114C5.41756 20.2121 7.61856 20.2121 9.81919 20.2114C9.85293 20.2114 9.88667 20.2039 9.92077 20.1999L9.9204 20.2007ZM14.5451 12.0907C14.7835 12.0868 15.061 12.0743 15.319 12.2102C15.5413 12.3276 15.6328 12.5215 15.4202 12.7219C15.2522 12.88 15.0933 13.0475 14.9264 13.207C14.8724 13.2589 14.8749 13.3026 14.9072 13.3645C14.9598 13.4643 15.0055 13.5677 15.048 13.6722C15.077 13.7441 15.1078 13.7573 15.1641 13.7019C15.5301 13.3419 15.8947 12.9806 16.2597 12.6196C16.3115 12.568 16.3119 12.5187 16.2586 12.465C16.1338 12.3398 16.0039 12.2181 15.89 12.0836C15.6759 11.831 15.3919 11.7158 15.0752 11.6882C14.5154 11.6392 13.9538 11.612 13.3933 11.5741C13.3153 11.5687 13.2551 11.5931 13.1978 11.6446C12.9195 11.8954 12.5876 11.9884 12.219 11.9383C11.9458 11.9011 11.8682 11.9909 11.7826 12.1859C11.6835 12.4113 11.6073 12.6467 11.5185 12.8768C11.3639 13.2761 11.2072 13.6743 11.0519 14.0729C10.9529 14.3276 10.8535 14.5827 10.757 14.8385C10.7269 14.9183 10.7592 14.9591 10.8422 14.9434C10.9605 14.9208 11.0777 14.8926 11.1927 14.8575C11.2275 14.8468 11.2641 14.8117 11.2808 14.7781C11.3222 14.6958 11.3516 14.6081 11.3875 14.523C11.5696 14.0933 11.7554 13.665 11.9331 13.2335C12.0205 13.0213 12.2825 13.0203 12.3946 13.187C12.6344 13.5437 12.8901 13.8897 13.1296 14.2464C13.2047 14.3584 13.266 14.4131 13.4169 14.3706C13.6915 14.2933 13.9756 14.2468 14.2549 14.1852C14.3667 14.1605 14.478 14.133 14.5869 14.099C14.6094 14.0918 14.6409 14.0439 14.6348 14.0264C14.5836 13.8811 14.539 13.7308 14.4646 13.597C14.2691 13.2457 14.059 12.9022 13.8566 12.5548C13.8312 12.5115 13.8062 12.4646 13.7975 12.4163C13.7695 12.2618 13.8729 12.1448 14.0619 12.1229C14.2088 12.1061 14.3572 12.1022 14.5444 12.09L14.5451 12.0907ZM13.5613 14.8622C13.6204 14.9466 13.6676 15.0153 13.7162 15.0829C13.7739 15.163 13.8145 15.2482 13.7873 15.3495C13.7666 15.4271 13.7419 15.5037 13.7184 15.5802C13.6527 15.7963 13.5863 16.0124 13.5206 16.2285C13.4593 16.4307 13.3988 16.6328 13.3374 16.835C13.2718 17.0511 13.2058 17.2672 13.1397 17.4836C13.0762 17.6912 13.0131 17.899 12.9496 18.1065C12.888 18.3087 12.8212 18.5091 12.7664 18.713C12.7283 18.8543 12.8063 18.9649 12.9565 19.0082C13.0512 19.0354 13.1492 18.9677 13.196 18.8396C13.2551 18.6776 13.311 18.5144 13.3694 18.3523C13.4891 18.0192 13.6106 17.6869 13.7296 17.3538C13.858 16.9953 13.9861 16.6371 14.1109 16.2775C14.1479 16.1709 14.2237 16.1137 14.3286 16.1026C14.4323 16.0915 14.5172 16.1387 14.5673 16.2325C14.6696 16.4242 14.7719 16.616 14.8706 16.8092C15.1876 17.4289 15.5022 18.05 15.8218 18.6686C15.8646 18.7516 15.9208 18.8343 15.9901 18.8958C16.0939 18.9881 16.276 18.9416 16.2927 18.8235C16.3039 18.7438 16.305 18.6497 16.2723 18.5788C16.1374 18.2844 15.9897 17.9956 15.8439 17.7062C15.6353 17.2919 15.4234 16.879 15.2148 16.4647C15.0044 16.0475 14.798 15.6282 14.5861 15.2117C14.5386 15.1187 14.5404 15.0285 14.5684 14.9348C14.5905 14.8607 14.6192 14.7884 14.642 14.7147C14.6689 14.6289 14.6522 14.6063 14.5651 14.6246C14.276 14.6843 13.9875 14.7477 13.6991 14.8117C13.6567 14.821 13.6168 14.8414 13.5609 14.8625L13.5613 14.8622ZM12.4022 10.1215C12.0285 10.1222 11.7256 10.422 11.7263 10.792C11.7271 11.1712 12.034 11.451 12.4069 11.4575C12.7715 11.4639 13.0831 11.1458 13.0813 10.782C13.0791 10.422 12.7697 10.1208 12.4022 10.1211V10.1215ZM12.2288 13.8203C12.1918 13.8965 12.1617 13.9516 12.1374 14.0088C12.0528 14.2081 11.9698 14.4081 11.8878 14.6085C11.8613 14.6725 11.8762 14.7076 11.9556 14.6904C12.17 14.6446 12.3851 14.601 12.5995 14.5534C12.6347 14.5455 12.6667 14.523 12.7055 14.5044C12.5484 14.279 12.3989 14.0643 12.2291 13.8203H12.2288ZM14.8238 12.6303C14.8183 12.6203 14.8125 12.6106 14.8071 12.6006H14.4668C14.5042 12.6671 14.5317 12.7129 14.556 12.7602C14.5829 12.812 14.617 12.8113 14.6565 12.7773C14.7128 12.729 14.7683 12.6793 14.8238 12.6303Z" fill="currentColor"/>
</svg>
