<svg width="20" height="20" viewBox="0 0 20 20" fill="none"
  xmlns="http://www.w3.org/2000/svg">
  <path fill-rule="evenodd" clip-rule="evenodd" d="M10.6948 2.36095C10.6948 1.97742 10.3839 1.6665 10.0003 1.6665C9.6168 1.6665 9.30588 1.97742 9.30588 2.36095V4.25404C6.66489 4.56988 4.57037 6.6644 4.25453 9.30539H2.36144C1.97791 9.30539 1.66699 9.61631 1.66699 9.99984C1.66699 10.3834 1.97791 10.6943 2.36144 10.6943H4.25453C4.57037 13.3353 6.66489 15.4298 9.30588 15.7456V17.6387C9.30588 18.0223 9.6168 18.3332 10.0003 18.3332C10.3839 18.3332 10.6948 18.0223 10.6948 17.6387V15.7456C13.3358 15.4298 15.4303 13.3353 15.7461 10.6943H17.6392C18.0227 10.6943 18.3337 10.3834 18.3337 9.99984C18.3337 9.61631 18.0227 9.30539 17.6392 9.30539H15.7461C15.4303 6.6644 13.3358 4.56988 10.6948 4.25404V2.36095ZM5.60218 9.99984C5.60218 7.57081 7.5713 5.60169 10.0003 5.60169C12.4294 5.60169 14.3985 7.57081 14.3985 9.99984C14.3985 12.4289 12.4294 14.398 10.0003 14.398C7.5713 14.398 5.60218 12.4289 5.60218 9.99984ZM10.0003 12.7776C8.4662 12.7776 7.22255 11.534 7.22255 9.99984C7.22255 8.46571 8.4662 7.22206 10.0003 7.22206C10.7674 7.22206 11.4618 7.53297 11.9645 8.03565C12.4672 8.53833 12.7781 9.23277 12.7781 9.99984C12.7781 11.534 11.5345 12.7776 10.0003 12.7776Z" fill="currentColor"/>
</svg>
