<svg width="44" height="44" viewBox="0 0 44 44" fill="none"
  xmlns="http://www.w3.org/2000/svg">
  <path d="M12.8332 40.3332H7.33317C6.36071 40.3332 5.42808 39.9469 4.74045 39.2592C4.05281 38.5716 3.6665 37.639 3.6665 36.6665V23.8332C3.6665 22.8607 4.05281 21.9281 4.74045 21.2404C5.42808 20.5528 6.36071 20.1665 7.33317 20.1665H12.8332M25.6665 16.4998V9.1665C25.6665 7.70781 25.087 6.30887 24.0556 5.27742C23.0241 4.24597 21.6252 3.6665 20.1665 3.6665L12.8332 20.1665V40.3332H33.5132C34.3974 40.3432 35.2555 40.0332 35.9293 39.4605C36.6031 38.8878 37.0472 38.0908 37.1798 37.2165L39.7098 20.7165C39.7896 20.191 39.7542 19.6544 39.606 19.144C39.4578 18.6335 39.2004 18.1614 38.8516 17.7603C38.5028 17.3592 38.071 17.0387 37.5861 16.8211C37.1011 16.6034 36.5747 16.4938 36.0432 16.4998H25.6665Z" stroke="currentColor" stroke-width="2" stroke-linecap="round" stroke-linejoin="round"/>
</svg>
