<svg width="45" height="44" viewBox="0 0 45 44" fill="none" xmlns="http://www.w3.org/2000/svg">
<path d="M31.6667 3.66668H36.5617C37.5993 3.64833 38.6075 4.01159 39.395 4.68751C40.1824 5.36343 40.6943 6.30495 40.8334 7.33335V20.1667C40.6943 21.1951 40.1824 22.1366 39.395 22.8125C38.6075 23.4884 37.5993 23.8517 36.5617 23.8333H31.6667M18.8334 27.5V34.8333C18.8334 36.292 19.4129 37.691 20.4443 38.7224C21.4758 39.7539 22.8747 40.3333 24.3334 40.3333L31.6667 23.8333V3.66668H10.9867C10.1025 3.65668 9.24436 3.9666 8.57056 4.53933C7.89676 5.11206 7.45265 5.90902 7.32006 6.78335L4.79006 23.2833C4.71029 23.8089 4.74574 24.3454 4.89393 24.8559C5.04213 25.3663 5.29954 25.8385 5.64832 26.2396C5.9971 26.6407 6.42891 26.9611 6.91384 27.1788C7.39877 27.3964 7.92522 27.506 8.45672 27.5H18.8334Z" stroke="currentColor" stroke-width="2" stroke-linecap="round" stroke-linejoin="round"/>
</svg>
