<svg width="28" height="28" viewBox="0 0 28 28" fill="none" xmlns="http://www.w3.org/2000/svg">
<path d="M25.6667 21.6874C25.6077 21.9285 25.5608 22.1739 25.4865 22.4108C25.0085 23.9426 23.5863 25.0124 21.9843 25.0155C17.8831 25.0234 13.7818 25.0264 9.68112 25.0142C7.46974 25.0082 5.5707 23.2626 5.38865 21.1078C5.1926 18.7868 6.69101 16.7563 8.92552 16.3617C9.38217 16.2814 9.86073 16.3295 10.3283 16.3082C10.4002 16.3051 10.5092 16.2625 10.5347 16.2071C11.2483 14.6758 13.0895 13.8051 14.8601 14.4487C14.8808 14.456 14.9033 14.459 14.9392 14.467C15.5852 13.4715 16.4821 12.8103 17.6432 12.5344C18.5717 12.314 19.4807 12.3993 20.363 12.7713C21.9399 13.4362 23.3384 15.2366 22.9183 17.655C22.9683 17.6763 23.0206 17.7024 23.0754 17.7219C24.516 18.2413 25.3696 19.2532 25.6284 20.7644C25.6345 20.7997 25.6539 20.8332 25.6673 20.8679L25.6667 21.6874ZM15.7959 24.1064C17.8082 24.1064 19.8205 24.1076 21.8327 24.1046C22.0288 24.1046 22.2273 24.09 22.4215 24.0595C23.7464 23.8507 24.7498 22.6549 24.754 21.2868C24.7583 19.9236 23.758 18.7217 22.4337 18.5C21.9277 18.4154 21.8187 18.2273 21.949 17.725C22.2772 16.4671 22.0178 15.337 21.1216 14.3939C19.5032 12.6903 16.7098 13.0885 15.595 15.1641C15.3843 15.5562 15.1992 15.6165 14.8035 15.4204C13.4049 14.7282 11.7659 15.3991 11.2575 16.872C11.1132 17.2896 10.9689 17.3444 10.5396 17.2848C10.1231 17.2269 9.69147 17.1855 9.27562 17.2275C7.4052 17.4175 5.99508 19.3104 6.31778 21.1614C6.62647 22.935 8.02015 24.1052 9.82724 24.1058C11.817 24.107 13.8061 24.1064 15.7959 24.1064Z" fill="currentColor"/>
<path d="M11.7104 7.41028C14.2421 7.41819 16.4139 9.11813 17.0148 11.5609C17.0946 11.8842 16.9795 12.1314 16.7165 12.2002C16.4419 12.272 16.2294 12.1125 16.1326 11.7752C15.6145 9.96566 14.4473 8.81918 12.6055 8.41246C10.0891 7.85596 7.55193 9.65697 7.20245 12.2154C7.04962 13.3357 7.27064 14.3738 7.8728 15.3297C7.98666 15.5112 8.02989 15.6914 7.90568 15.8826C7.79913 16.0457 7.63535 16.1322 7.45695 16.0737C7.32544 16.0311 7.18418 15.9307 7.10929 15.8156C5.26749 12.9856 6.47912 9.11691 9.60379 7.82795C10.279 7.54971 10.9792 7.40297 11.7104 7.41028Z" fill="currentColor"/>
<path d="M4.03881 7.95886C4.09422 7.98139 4.1959 8.01122 4.2854 8.06237C4.73961 8.31991 5.19138 8.58111 5.64194 8.84475C5.91349 9.00366 5.99751 9.25634 5.86539 9.49319C5.7351 9.72699 5.46294 9.79031 5.19443 9.63809C4.72074 9.36959 4.24826 9.09743 3.77944 8.8204C3.56025 8.69132 3.47927 8.49222 3.54746 8.28399C3.61626 8.0715 3.76665 7.96495 4.03881 7.95886Z" fill="currentColor"/>
<path d="M5.44589 16.0238C5.67786 16.0342 5.82034 16.1304 5.89218 16.3215C5.96829 16.5249 5.9208 16.7191 5.74545 16.8269C5.22244 17.1484 4.69029 17.4565 4.15023 17.7493C3.94444 17.8607 3.69115 17.7505 3.58339 17.5514C3.47196 17.3457 3.51519 17.093 3.72221 16.9682C4.23487 16.6582 4.75727 16.3648 5.27845 16.0695C5.33508 16.0372 5.40753 16.0336 5.44589 16.0238Z" fill="currentColor"/>
<path d="M7.34005 4.69233C7.40703 4.7453 7.5702 4.81897 7.64935 4.945C7.94282 5.41322 8.21315 5.89604 8.48288 6.37826C8.62657 6.63398 8.55412 6.90127 8.32579 7.02669C8.10052 7.1509 7.84723 7.0821 7.70232 6.83795C7.41616 6.35634 7.13243 5.8723 6.8627 5.38156C6.68674 5.06129 6.89924 4.69598 7.34005 4.69233Z" fill="currentColor"/>
<path d="M3.64975 12.4206C3.92252 12.4206 4.1959 12.4157 4.46867 12.4218C4.75727 12.4285 4.94601 12.6002 4.95697 12.8541C4.96854 13.1135 4.77614 13.3205 4.48206 13.3266C3.92861 13.3375 3.37516 13.3363 2.8217 13.3278C2.52519 13.3229 2.33096 13.1269 2.3334 12.8681C2.33583 12.6069 2.53006 12.4279 2.83084 12.4218C3.1036 12.4163 3.37637 12.4206 3.64975 12.4206Z" fill="currentColor"/>
<path d="M11.2581 4.79888C11.2581 4.52611 11.2538 4.25273 11.2593 3.97996C11.2648 3.69258 11.4389 3.50688 11.6964 3.50018C11.9522 3.49348 12.158 3.67614 12.1634 3.95378C12.175 4.52185 12.175 5.09113 12.1634 5.6592C12.158 5.9411 11.9583 6.12071 11.6995 6.11584C11.4413 6.11097 11.2642 5.92466 11.2587 5.63971C11.2532 5.35964 11.2581 5.07956 11.2581 4.79888Z" fill="currentColor"/>
<path d="M14.8625 6.56518C14.8808 6.52073 14.9112 6.41905 14.9624 6.32955C15.2163 5.88143 15.4738 5.43574 15.7338 4.99128C15.9012 4.7045 16.1545 4.61804 16.3962 4.75747C16.6337 4.89508 16.6836 5.16115 16.5186 5.45036C16.2525 5.91735 15.9859 6.38435 15.7119 6.84647C15.5901 7.05166 15.3953 7.1235 15.1889 7.06444C14.9879 7.0066 14.8595 6.83429 14.8625 6.56518Z" fill="currentColor"/>
<path d="M19.9355 8.44351C19.8393 8.56772 19.7669 8.73028 19.6421 8.80883C19.1665 9.10656 18.677 9.38116 18.1875 9.65453C17.9452 9.7897 17.6828 9.71359 17.5561 9.49197C17.4295 9.26973 17.4977 9.01219 17.7424 8.86667C18.2246 8.5799 18.7087 8.29617 19.1994 8.02462C19.5239 7.845 19.8832 8.05262 19.9355 8.44351Z" fill="currentColor"/>
</svg>
